# Blender 5.0.0
# www.blender.org
mtllib krail_shading.mtl
o Cube
v 1.939132 -1.000000 0.567659
v 1.965014 -1.000000 0.471066
v -1.924572 -1.000000 -0.467617
v -1.898690 -1.000000 -0.564210
v 1.939132 1.000000 0.567659
v 1.965014 1.000000 0.471066
v -1.924572 1.000000 -0.467617
v -1.898690 1.000000 -0.564210
vn -0.2588 -0.0000 0.9659
vn -0.9659 -0.0000 -0.2588
vn -0.0000 1.0000 -0.0000
vn 0.2588 -0.0000 -0.9659
vn -0.0000 -1.0000 -0.0000
vn 0.9659 -0.0000 0.2588
vt 0.625000 0.500000
vt 0.875000 0.500000
vt 0.875000 0.750000
vt 0.625000 0.750000
vt 0.375000 0.750000
vt 0.625000 1.000000
vt 0.375000 1.000000
vt 0.375000 0.000000
vt 0.625000 0.000000
vt 0.625000 0.250000
vt 0.375000 0.250000
vt 0.125000 0.500000
vt 0.375000 0.500000
vt 0.125000 0.750000
s 0
usemtl Material
f 1/1/1 5/2/1 7/3/1 3/4/1
f 4/5/2 3/4/2 7/6/2 8/7/2
f 8/8/3 7/9/3 5/10/3 6/11/3
f 6/12/4 2/13/4 4/5/4 8/14/4
f 2/13/5 1/1/5 3/4/5 4/5/5
f 6/11/6 5/10/6 1/1/6 2/13/6
o Cube.003
v -1.925745 1.000000 -0.479219
v -1.951627 1.000000 -0.382627
v -1.829153 1.000000 -0.453337
v -1.855035 1.000000 -0.356745
v -1.925745 -1.000000 -0.479219
v -1.951627 -1.000000 -0.382627
v -1.829153 -1.000000 -0.453337
v -1.855035 -1.000000 -0.356745
v 1.850993 1.000000 0.547011
v 1.825111 1.000000 0.643604
v 1.947585 1.000000 0.572893
v 1.921704 1.000000 0.669486
v 1.850993 -1.000000 0.547011
v 1.825111 -1.000000 0.643604
v 1.947585 -1.000000 0.572893
v 1.921704 -1.000000 0.669486
v 0.137660 -0.920027 0.069678
v 0.111778 -0.920027 0.166270
v 0.053909 -0.830952 0.047237
v 0.028027 -0.830952 0.143829
v 1.875180 0.830952 0.535245
v 1.849298 0.830952 0.631837
v 1.791428 0.920027 0.512804
v 1.765546 0.920027 0.609396
v -1.840655 0.894447 -0.454880
v -1.866537 0.894447 -0.358287
v -1.840655 0.994447 -0.454880
v -1.866537 0.994447 -0.358287
v 1.860090 0.894447 0.536732
v 1.834208 0.894447 0.633325
v 1.860090 0.994447 0.536732
v 1.834208 0.994447 0.633325
v -1.840655 -1.008539 -0.454880
v -1.866537 -1.008539 -0.358287
v -1.840655 -0.908539 -0.454880
v -1.866537 -0.908539 -0.358287
v 1.860090 -1.008539 0.536732
v 1.834208 -1.008539 0.633325
v 1.860090 -0.908539 0.536732
v 1.834208 -0.908539 0.633325
v -0.012835 -0.830953 0.029353
v -0.038717 -0.830953 0.125945
v -0.096587 -0.920027 0.006912
v -0.122468 -0.920027 0.103504
v -1.750354 0.920027 -0.436214
v -1.776236 0.920027 -0.339622
v -1.834105 0.830953 -0.458655
v -1.859987 0.830953 -0.362063
vn -0.0000 1.0000 -0.0000
vn 0.9659 -0.0000 0.2588
vn -0.0000 -1.0000 -0.0000
vn -0.9659 -0.0000 -0.2588
vn 0.2588 -0.0000 -0.9659
vn -0.2588 -0.0000 0.9659
vn -0.6922 -0.6975 -0.1855
vn -0.6737 0.7166 -0.1805
vn 0.6922 0.6975 0.1855
vn 0.6737 -0.7166 0.1805
vn 0.6922 -0.6975 0.1855
vn -0.6737 -0.7166 -0.1805
vn -0.6922 0.6975 -0.1855
vn 0.6737 0.7166 0.1805
vt 0.375000 0.000000
vt 0.625000 0.000000
vt 0.625000 0.250000
vt 0.375000 0.250000
vt 0.625000 0.500000
vt 0.375000 0.500000
vt 0.625000 0.750000
vt 0.375000 0.750000
vt 0.625000 1.000000
vt 0.375000 1.000000
vt 0.125000 0.500000
vt 0.125000 0.750000
vt 0.875000 0.500000
vt 0.875000 0.750000
s 0
usemtl Material.017
f 9/15/7 10/16/7 12/17/7 11/18/7
f 11/18/8 12/17/8 16/19/8 15/20/8
f 15/20/9 16/19/9 14/21/9 13/22/9
f 13/22/10 14/21/10 10/23/10 9/24/10
f 11/25/11 15/20/11 13/22/11 9/26/11
f 16/19/12 12/27/12 10/28/12 14/21/12
f 17/15/7 18/16/7 20/17/7 19/18/7
f 19/18/8 20/17/8 24/19/8 23/20/8
f 23/20/9 24/19/9 22/21/9 21/22/9
f 21/22/10 22/21/10 18/23/10 17/24/10
f 19/25/11 23/20/11 21/22/11 17/26/11
f 24/19/12 20/27/12 18/28/12 22/21/12
f 25/15/13 26/16/13 28/17/13 27/18/13
f 27/18/14 28/17/14 32/19/14 31/20/14
f 31/20/15 32/19/15 30/21/15 29/22/15
f 29/22/16 30/21/16 26/23/16 25/24/16
f 27/25/11 31/20/11 29/22/11 25/26/11
f 32/19/12 28/27/12 26/28/12 30/21/12
f 33/15/10 34/16/10 36/17/10 35/18/10
f 35/18/7 36/17/7 40/19/7 39/20/7
f 39/20/8 40/19/8 38/21/8 37/22/8
f 37/22/9 38/21/9 34/23/9 33/24/9
f 35/25/11 39/20/11 37/22/11 33/26/11
f 40/19/12 36/27/12 34/28/12 38/21/12
f 41/15/10 42/16/10 44/17/10 43/18/10
f 43/18/7 44/17/7 48/19/7 47/20/7
f 47/20/8 48/19/8 46/21/8 45/22/8
f 45/22/9 46/21/9 42/23/9 41/24/9
f 43/25/11 47/20/11 45/22/11 41/26/11
f 48/19/12 44/27/12 42/28/12 46/21/12
f 49/15/17 50/16/17 52/17/17 51/18/17
f 51/18/18 52/17/18 56/19/18 55/20/18
f 55/20/19 56/19/19 54/21/19 53/22/19
f 53/22/20 54/21/20 50/23/20 49/24/20
f 51/25/11 55/20/11 53/22/11 49/26/11
f 56/19/12 52/27/12 50/28/12 54/21/12
o Cube.008
v 1.906834 -0.997784 -0.454880
v 1.932716 -0.997784 -0.358287
v 1.906834 -1.097784 -0.454880
v 1.932716 -1.097784 -0.358287
v -1.793911 -0.997784 0.536732
v -1.768029 -0.997784 0.633325
v -1.793911 -1.097784 0.536732
v -1.768029 -1.097784 0.633325
v 0.079013 -1.175370 0.029353
v 0.104895 -1.175370 0.125945
v 0.162765 -1.086296 0.006911
v 0.188647 -1.086296 0.103504
v 1.816532 -2.926349 -0.436214
v 1.842414 -2.926349 -0.339622
v 1.900284 -2.837275 -0.458655
v 1.926166 -2.837275 -0.362063
v 1.906834 -2.900770 -0.454880
v 1.932716 -2.900770 -0.358287
v 1.906834 -3.000770 -0.454880
v 1.932716 -3.000770 -0.358287
v -1.793911 -2.900770 0.536732
v -1.768029 -2.900770 0.633325
v -1.793911 -3.000770 0.536732
v -1.768029 -3.000770 0.633325
v -0.071482 -1.086296 0.069678
v -0.045600 -1.086296 0.166270
v 0.012270 -1.175370 0.047237
v 0.038151 -1.175370 0.143829
v -1.809001 -2.837275 0.535245
v -1.783119 -2.837275 0.631837
v -1.725249 -2.926349 0.512803
v -1.699368 -2.926349 0.609396
v 1.991924 -2.998771 -0.479219
v 2.017806 -2.998771 -0.382627
v 1.895332 -2.998771 -0.453337
v 1.921214 -2.998771 -0.356745
v 1.991923 -0.998771 -0.479219
v 2.017805 -0.998771 -0.382627
v 1.895331 -0.998771 -0.453337
v 1.921212 -0.998771 -0.356745
v -1.784814 -3.006323 0.547011
v -1.758932 -3.006323 0.643604
v -1.881406 -3.006323 0.572893
v -1.855524 -3.006323 0.669485
v -1.784815 -1.006323 0.547011
v -1.758933 -1.006323 0.643604
v -1.881407 -1.006323 0.572893
v -1.855525 -1.006323 0.669486
vn 0.9659 -0.0000 -0.2588
vn -0.0000 -1.0000 -0.0000
vn -0.9659 -0.0000 0.2588
vn -0.0000 1.0000 -0.0000
vn -0.2588 -0.0000 -0.9659
vn 0.2588 -0.0000 0.9659
vn -0.6922 0.6975 0.1855
vn 0.6737 0.7166 -0.1805
vn 0.6922 -0.6975 -0.1855
vn -0.6737 -0.7166 0.1805
vn 0.6922 0.6975 -0.1855
vn 0.6737 -0.7166 -0.1805
vn -0.6922 -0.6975 0.1855
vn -0.6737 0.7166 0.1805
vt 0.375000 0.000000
vt 0.625000 0.000000
vt 0.625000 0.250000
vt 0.375000 0.250000
vt 0.625000 0.500000
vt 0.375000 0.500000
vt 0.625000 0.750000
vt 0.375000 0.750000
vt 0.625000 1.000000
vt 0.375000 1.000000
vt 0.125000 0.500000
vt 0.125000 0.750000
vt 0.875000 0.500000
vt 0.875000 0.750000
s 0
usemtl Material.016
f 57/29/21 58/30/21 60/31/21 59/32/21
f 59/32/22 60/31/22 64/33/22 63/34/22
f 63/34/23 64/33/23 62/35/23 61/36/23
f 61/36/24 62/35/24 58/37/24 57/38/24
f 59/39/25 63/34/25 61/36/25 57/40/25
f 64/33/26 60/41/26 58/42/26 62/35/26
f 65/29/27 66/30/27 68/31/27 67/32/27
f 67/32/28 68/31/28 72/33/28 71/34/28
f 71/34/29 72/33/29 70/35/29 69/36/29
f 69/36/30 70/35/30 66/37/30 65/38/30
f 67/39/25 71/34/25 69/36/25 65/40/25
f 72/33/26 68/41/26 66/42/26 70/35/26
f 73/29/21 74/30/21 76/31/21 75/32/21
f 75/32/22 76/31/22 80/33/22 79/34/22
f 79/34/23 80/33/23 78/35/23 77/36/23
f 77/36/24 78/35/24 74/37/24 73/38/24
f 75/39/25 79/34/25 77/36/25 73/40/25
f 80/33/26 76/41/26 74/42/26 78/35/26
f 81/29/31 82/30/31 84/31/31 83/32/31
f 83/32/32 84/31/32 88/33/32 87/34/32
f 87/34/33 88/33/33 86/35/33 85/36/33
f 85/36/34 86/35/34 82/37/34 81/38/34
f 83/39/25 87/34/25 85/36/25 81/40/25
f 88/33/26 84/41/26 82/42/26 86/35/26
f 89/29/22 90/30/22 92/31/22 91/32/22
f 91/32/23 92/31/23 96/33/23 95/34/23
f 95/34/24 96/33/24 94/35/24 93/36/24
f 93/36/21 94/35/21 90/37/21 89/38/21
f 91/39/25 95/34/25 93/36/25 89/40/25
f 96/33/26 92/41/26 90/42/26 94/35/26
f 97/29/22 98/30/22 100/31/22 99/32/22
f 99/32/23 100/31/23 104/33/23 103/34/23
f 103/34/24 104/33/24 102/35/24 101/36/24
f 101/36/21 102/35/21 98/37/21 97/38/21
f 99/39/25 103/34/25 101/36/25 97/40/25
f 104/33/26 100/41/26 98/42/26 102/35/26
o Cube.013
v -1.872954 -1.006324 0.567659
v -1.898836 -1.006324 0.471067
v 1.990749 -1.006321 -0.467617
v 1.964867 -1.006321 -0.564210
v -1.872953 -3.006324 0.567659
v -1.898835 -3.006324 0.471066
v 1.990750 -3.006321 -0.467617
v 1.964868 -3.006321 -0.564210
vn 0.2588 -0.0000 0.9659
vn 0.9659 -0.0000 -0.2588
vn -0.0000 -1.0000 -0.0000
vn -0.2588 -0.0000 -0.9659
vn -0.0000 1.0000 -0.0000
vn -0.9659 -0.0000 0.2588
vt 0.625000 0.500000
vt 0.875000 0.500000
vt 0.875000 0.750000
vt 0.625000 0.750000
vt 0.375000 0.750000
vt 0.625000 1.000000
vt 0.375000 1.000000
vt 0.375000 0.000000
vt 0.625000 0.000000
vt 0.625000 0.250000
vt 0.375000 0.250000
vt 0.125000 0.500000
vt 0.375000 0.500000
vt 0.125000 0.750000
s 0
usemtl Material.001
f 105/43/35 109/44/35 111/45/35 107/46/35
f 108/47/36 107/46/36 111/48/36 112/49/36
f 112/50/37 111/51/37 109/52/37 110/53/37
f 110/54/38 106/55/38 108/47/38 112/56/38
f 106/55/39 105/43/39 107/46/39 108/47/39
f 110/53/40 109/52/40 105/43/40 106/55/40
o Cube.014
v 1.928207 1.000000 -0.550017
v 1.928207 1.000000 1.449983
v 2.014124 1.000000 -0.550017
v 2.014124 1.000000 1.449983
v 1.928207 -1.000000 -0.550017
v 1.928207 -1.000000 1.449983
v 2.014124 -1.000000 -0.550017
v 2.014124 -1.000000 1.449983
vn -0.0000 1.0000 -0.0000
vn 1.0000 -0.0000 -0.0000
vn -0.0000 -1.0000 -0.0000
vn -1.0000 -0.0000 -0.0000
vn -0.0000 -0.0000 -1.0000
vn -0.0000 -0.0000 1.0000
vt 0.375000 0.000000
vt 0.625000 0.000000
vt 0.625000 0.250000
vt 0.375000 0.250000
vt 0.625000 0.500000
vt 0.375000 0.500000
vt 0.625000 0.750000
vt 0.375000 0.750000
vt 0.625000 1.000000
vt 0.375000 1.000000
vt 0.125000 0.500000
vt 0.125000 0.750000
vt 0.875000 0.500000
vt 0.875000 0.750000
s 0
usemtl Material.020
f 113/57/41 114/58/41 116/59/41 115/60/41
f 115/60/42 116/59/42 120/61/42 119/62/42
f 119/62/43 120/61/43 118/63/43 117/64/43
f 117/64/44 118/63/44 114/65/44 113/66/44
f 115/67/45 119/62/45 117/64/45 113/68/45
f 120/61/46 116/69/46 114/70/46 118/63/46
o Cube.015
v -1.957696 -1.019581 -0.550017
v -1.957696 -1.019581 1.449983
v -1.871778 -1.019581 -0.550017
v -1.871778 -1.019581 1.449983
v -1.957696 -3.019581 -0.550017
v -1.957696 -3.019581 1.449983
v -1.871778 -3.019581 -0.550017
v -1.871778 -3.019581 1.449983
vn -0.9982 0.0429 -0.0429
vn -0.9982 0.0429 0.0429
vn 0.9982 0.0429 -0.0429
vn 0.9982 0.0429 0.0429
vn -0.9982 -0.0429 -0.0429
vn -0.9982 -0.0429 0.0429
vn 0.9982 -0.0429 -0.0429
vn 0.9982 -0.0429 0.0429
vt 0.375000 0.000000
vt 0.625000 0.000000
vt 0.625000 0.250000
vt 0.375000 0.250000
vt 0.625000 0.500000
vt 0.375000 0.500000
vt 0.625000 0.750000
vt 0.375000 0.750000
vt 0.625000 1.000000
vt 0.375000 1.000000
vt 0.125000 0.500000
vt 0.125000 0.750000
vt 0.875000 0.500000
vt 0.875000 0.750000
s 1
usemtl Material.019
f 121/71/47 122/72/48 124/73/50 123/74/49
f 123/74/49 124/73/50 128/75/54 127/76/53
f 127/76/53 128/75/54 126/77/52 125/78/51
f 125/78/51 126/77/52 122/79/48 121/80/47
f 123/81/49 127/76/53 125/78/51 121/82/47
f 128/75/54 124/83/50 122/84/48 126/77/52
o Cube.016
v -2.024979 -3.106908 1.407396
v -2.024979 -3.006908 1.407396
v 1.975021 -3.106908 1.407396
v 1.975021 -3.006907 1.407396
v -2.024979 -3.106907 -0.592604
v -2.024979 -3.006907 -0.592604
v 1.975021 -3.106906 -0.592604
v 1.975021 -3.006907 -0.592604
vn -0.0000 -1.0000 -0.0000
vn 1.0000 -0.0000 -0.0000
vn -0.0000 -0.0000 -1.0000
vn -0.0000 1.0000 -0.0000
vn -0.0000 -0.0000 1.0000
vn -1.0000 -0.0000 -0.0000
vt 0.625000 0.500000
vt 0.875000 0.500000
vt 0.875000 0.750000
vt 0.625000 0.750000
vt 0.375000 0.750000
vt 0.625000 1.000000
vt 0.375000 1.000000
vt 0.375000 0.000000
vt 0.625000 0.000000
vt 0.625000 0.250000
vt 0.375000 0.250000
vt 0.125000 0.500000
vt 0.375000 0.500000
vt 0.125000 0.750000
s 0
usemtl Material.002
f 129/85/55 133/86/55 135/87/55 131/88/55
f 132/89/56 131/88/56 135/90/56 136/91/56
f 136/92/57 135/93/57 133/94/57 134/95/57
f 134/96/58 130/97/58 132/89/58 136/98/58
f 130/97/59 129/85/59 131/88/59 132/89/59
f 134/95/60 133/94/60 129/85/60 130/97/60
o Cube.017
v -2.024979 1.006211 1.439864
v -2.024979 1.106211 1.439864
v 1.975021 1.006212 1.439864
v 1.975021 1.106212 1.439864
v -2.024979 1.006212 -0.560136
v -2.024979 1.106212 -0.560136
v 1.975021 1.006213 -0.560136
v 1.975021 1.106213 -0.560136
vn -0.0000 -1.0000 -0.0000
vn 1.0000 -0.0000 -0.0000
vn -0.0000 -0.0000 -1.0000
vn -0.0000 1.0000 -0.0000
vn -0.0000 -0.0000 1.0000
vn -1.0000 -0.0000 -0.0000
vt 0.625000 0.500000
vt 0.875000 0.500000
vt 0.875000 0.750000
vt 0.625000 0.750000
vt 0.375000 0.750000
vt 0.625000 1.000000
vt 0.375000 1.000000
vt 0.375000 0.000000
vt 0.625000 0.000000
vt 0.625000 0.250000
vt 0.375000 0.250000
vt 0.125000 0.500000
vt 0.375000 0.500000
vt 0.125000 0.750000
s 0
usemtl Material.003
f 137/99/61 141/100/61 143/101/61 139/102/61
f 140/103/62 139/102/62 143/104/62 144/105/62
f 144/106/63 143/107/63 141/108/63 142/109/63
f 142/110/64 138/111/64 140/103/64 144/112/64
f 138/111/65 137/99/65 139/102/65 140/103/65
f 142/109/66 141/108/66 137/99/66 138/111/66
o Cube.018
v 4.020267 0.941145 -0.455601
v 4.020267 0.941145 -0.555601
v 4.020270 -3.058855 -0.455601
v 4.020270 -3.058855 -0.555601
v 2.020267 0.941144 -0.455601
v 2.020267 0.941144 -0.555601
v 2.020270 -3.058856 -0.455601
v 2.020270 -3.058856 -0.555601
vn -0.0000 -0.0000 1.0000
vn -0.0000 -1.0000 -0.0000
vn -1.0000 -0.0000 -0.0000
vn -0.0000 -0.0000 -1.0000
vn 1.0000 -0.0000 -0.0000
vn -0.0000 1.0000 -0.0000
vt 0.625000 0.500000
vt 0.875000 0.500000
vt 0.875000 0.750000
vt 0.625000 0.750000
vt 0.375000 0.750000
vt 0.625000 1.000000
vt 0.375000 1.000000
vt 0.375000 0.000000
vt 0.625000 0.000000
vt 0.625000 0.250000
vt 0.375000 0.250000
vt 0.125000 0.500000
vt 0.375000 0.500000
vt 0.125000 0.750000
s 0
usemtl Material.005
f 145/113/67 149/114/67 151/115/67 147/116/67
f 148/117/68 147/116/68 151/118/68 152/119/68
f 152/120/69 151/121/69 149/122/69 150/123/69
f 150/124/70 146/125/70 148/117/70 152/126/70
f 146/125/71 145/113/71 147/116/71 148/117/71
f 150/123/72 149/122/72 145/113/72 146/125/72
o Cube.019
v 2.020269 0.850663 -0.452733
v 2.020269 0.850663 -0.352733
v 2.020269 0.950663 -0.452733
v 2.020269 0.950663 -0.352733
v 4.020268 0.850665 -0.452733
v 4.020268 0.850665 -0.352733
v 4.020268 0.950665 -0.452733
v 4.020268 0.950665 -0.352733
vn -1.0000 -0.0000 -0.0000
vn -0.0000 1.0000 -0.0000
vn 1.0000 -0.0000 -0.0000
vn -0.0000 -1.0000 -0.0000
vn -0.0000 -0.0000 -1.0000
vn -0.0000 -0.0000 1.0000
vt 0.375000 0.000000
vt 0.625000 0.000000
vt 0.625000 0.250000
vt 0.375000 0.250000
vt 0.625000 0.500000
vt 0.375000 0.500000
vt 0.625000 0.750000
vt 0.375000 0.750000
vt 0.625000 1.000000
vt 0.375000 1.000000
vt 0.125000 0.500000
vt 0.125000 0.750000
vt 0.875000 0.500000
vt 0.875000 0.750000
s 0
usemtl Material.011
f 153/127/73 154/128/73 156/129/73 155/130/73
f 155/130/74 156/129/74 160/131/74 159/132/74
f 159/132/75 160/131/75 158/133/75 157/134/75
f 157/134/76 158/133/76 154/135/76 153/136/76
f 155/137/77 159/132/77 157/134/77 153/138/77
f 160/131/78 156/139/78 154/140/78 158/133/78
o Cube.020
v 2.027820 -3.074230 -0.451859
v 2.027820 -3.048348 -0.355266
v 2.027820 -2.977637 -0.477741
v 2.027820 -2.951756 -0.381148
v 4.027820 -3.074228 -0.451859
v 4.027820 -3.048347 -0.355266
v 4.027820 -2.977636 -0.477741
v 4.027820 -2.951754 -0.381148
vn -1.0000 -0.0000 -0.0000
vn -0.0000 0.9659 -0.2588
vn 1.0000 -0.0000 -0.0000
vn -0.0000 -0.9659 0.2588
vn -0.0000 -0.2588 -0.9659
vn -0.0000 0.2588 0.9659
vt 0.375000 0.000000
vt 0.625000 0.000000
vt 0.625000 0.250000
vt 0.375000 0.250000
vt 0.625000 0.500000
vt 0.375000 0.500000
vt 0.625000 0.750000
vt 0.375000 0.750000
vt 0.625000 1.000000
vt 0.375000 1.000000
vt 0.125000 0.500000
vt 0.125000 0.750000
vt 0.875000 0.500000
vt 0.875000 0.750000
s 0
usemtl Material.010
f 161/141/79 162/142/79 164/143/79 163/144/79
f 163/144/80 164/143/80 168/145/80 167/146/80
f 167/146/81 168/145/81 166/147/81 165/148/81
f 165/148/82 166/147/82 162/149/82 161/150/82
f 163/151/83 167/146/83 165/148/83 161/152/83
f 168/145/84 164/153/84 162/154/84 166/147/84
o Cube.021
v 3.940296 -0.927830 -0.470358
v 3.940296 -0.927830 -0.370358
v 3.851222 -1.014536 -0.470358
v 3.851222 -1.014536 -0.370358
v 2.189316 0.870981 -0.470358
v 2.189316 0.870981 -0.370358
v 2.100241 0.784275 -0.470358
v 2.100241 0.784275 -0.370358
vn 0.6975 -0.7166 -0.0000
vn -0.7166 -0.6975 -0.0000
vn -0.6975 0.7166 -0.0000
vn 0.7166 0.6975 -0.0000
vn -0.0000 -0.0000 -1.0000
vn -0.0000 -0.0000 1.0000
vt 0.375000 0.000000
vt 0.625000 0.000000
vt 0.625000 0.250000
vt 0.375000 0.250000
vt 0.625000 0.500000
vt 0.375000 0.500000
vt 0.625000 0.750000
vt 0.375000 0.750000
vt 0.625000 1.000000
vt 0.375000 1.000000
vt 0.125000 0.500000
vt 0.125000 0.750000
vt 0.875000 0.500000
vt 0.875000 0.750000
s 0
usemtl Material.015
f 169/155/85 170/156/85 172/157/85 171/158/85
f 171/158/86 172/157/86 176/159/86 175/160/86
f 175/160/87 176/159/87 174/161/87 173/162/87
f 173/162/88 174/161/88 170/163/88 169/164/88
f 171/165/89 175/160/89 173/162/89 169/166/89
f 176/159/90 172/167/90 170/168/90 174/161/90
o Cube.022
v 2.125821 -2.974502 -0.465016
v 2.125821 -2.974502 -0.365016
v 2.025821 -2.974502 -0.465016
v 2.025821 -2.974502 -0.365016
v 2.125821 0.856791 -0.465016
v 2.125821 0.856791 -0.365016
v 2.025821 0.856791 -0.465016
v 2.025821 0.856791 -0.365016
vn -0.0000 -1.0000 -0.0000
vn -1.0000 -0.0000 -0.0000
vn -0.0000 1.0000 -0.0000
vn 1.0000 -0.0000 -0.0000
vn -0.0000 -0.0000 -1.0000
vn -0.0000 -0.0000 1.0000
vt 0.375000 0.000000
vt 0.625000 0.000000
vt 0.625000 0.250000
vt 0.375000 0.250000
vt 0.625000 0.500000
vt 0.375000 0.500000
vt 0.625000 0.750000
vt 0.375000 0.750000
vt 0.625000 1.000000
vt 0.375000 1.000000
vt 0.125000 0.500000
vt 0.125000 0.750000
vt 0.875000 0.500000
vt 0.875000 0.750000
s 0
usemtl Material.012
f 177/169/91 178/170/91 180/171/91 179/172/91
f 179/172/92 180/171/92 184/173/92 183/174/92
f 183/174/93 184/173/93 182/175/93 181/176/93
f 181/176/94 182/175/94 178/177/94 177/178/94
f 179/179/95 183/174/95 181/176/95 177/180/95
f 184/173/96 180/181/96 178/182/96 182/175/96
o Cube.023
v 4.028808 -2.974502 -0.465016
v 4.028808 -2.974502 -0.365016
v 3.928807 -2.974502 -0.465016
v 3.928807 -2.974502 -0.365016
v 4.028807 0.856791 -0.465016
v 4.028807 0.856791 -0.365016
v 3.928807 0.856791 -0.465016
v 3.928807 0.856791 -0.365016
vn -0.0000 -1.0000 -0.0000
vn -1.0000 -0.0000 -0.0000
vn -0.0000 1.0000 -0.0000
vn 1.0000 -0.0000 -0.0000
vn -0.0000 -0.0000 -1.0000
vn -0.0000 -0.0000 1.0000
vt 0.375000 0.000000
vt 0.625000 0.000000
vt 0.625000 0.250000
vt 0.375000 0.250000
vt 0.625000 0.500000
vt 0.375000 0.500000
vt 0.625000 0.750000
vt 0.375000 0.750000
vt 0.625000 1.000000
vt 0.375000 1.000000
vt 0.125000 0.500000
vt 0.125000 0.750000
vt 0.875000 0.500000
vt 0.875000 0.750000
s 0
usemtl Material.013
f 185/183/97 186/184/97 188/185/97 187/186/97
f 187/186/98 188/185/98 192/187/98 191/188/98
f 191/188/99 192/187/99 190/189/99 189/190/99
f 189/190/100 190/189/100 186/191/100 185/192/100
f 187/193/101 191/188/101 189/190/101 185/194/101
f 192/187/102 188/195/102 186/196/102 190/189/102
o Cube.024
v 3.851221 -1.083635 -0.470358
v 3.851221 -1.083635 -0.370358
v 3.940296 -1.170341 -0.470358
v 3.940296 -1.170341 -0.370358
v 2.100242 -2.882447 -0.470358
v 2.100242 -2.882447 -0.370358
v 2.189316 -2.969153 -0.470358
v 2.189316 -2.969153 -0.370358
vn 0.6975 0.7166 -0.0000
vn 0.7166 -0.6975 -0.0000
vn -0.6975 -0.7166 -0.0000
vn -0.7166 0.6975 -0.0000
vn -0.0000 -0.0000 -1.0000
vn -0.0000 -0.0000 1.0000
vt 0.375000 0.000000
vt 0.625000 0.000000
vt 0.625000 0.250000
vt 0.375000 0.250000
vt 0.625000 0.500000
vt 0.375000 0.500000
vt 0.625000 0.750000
vt 0.375000 0.750000
vt 0.625000 1.000000
vt 0.375000 1.000000
vt 0.125000 0.500000
vt 0.125000 0.750000
vt 0.875000 0.500000
vt 0.875000 0.750000
s 0
usemtl Material.014
f 193/197/103 194/198/103 196/199/103 195/200/103
f 195/200/104 196/199/104 200/201/104 199/202/104
f 199/202/105 200/201/105 198/203/105 197/204/105
f 197/204/106 198/203/106 194/205/106 193/206/106
f 195/207/107 199/202/107 197/204/107 193/208/107
f 200/201/108 196/209/108 194/210/108 198/203/108
o Cube.030
v -3.962846 0.850664 -0.452733
v -3.962846 0.850664 -0.352733
v -3.962846 0.950664 -0.452733
v -3.962846 0.950664 -0.352733
v -1.962846 0.850665 -0.452733
v -1.962846 0.850665 -0.352733
v -1.962846 0.950665 -0.452733
v -1.962846 0.950665 -0.352733
v -1.954307 -2.974502 -0.465016
v -1.954307 -2.974502 -0.365016
v -2.054307 -2.974502 -0.465016
v -2.054307 -2.974502 -0.365016
v -1.954307 0.856791 -0.465016
v -1.954307 0.856791 -0.365016
v -2.054307 0.856791 -0.465016
v -2.054307 0.856791 -0.365016
v -3.857293 -2.974503 -0.465016
v -3.857293 -2.974503 -0.365016
v -3.957293 -2.974503 -0.465016
v -3.957293 -2.974503 -0.365016
v -3.857293 0.856791 -0.465016
v -3.857293 0.856791 -0.365016
v -3.957294 0.856791 -0.465016
v -3.957294 0.856791 -0.365016
v -2.042819 -0.927830 -0.470359
v -2.042819 -0.927830 -0.370358
v -2.131893 -1.014536 -0.470359
v -2.131893 -1.014536 -0.370358
v -3.793799 0.870981 -0.470358
v -3.793799 0.870981 -0.370358
v -3.882873 0.784275 -0.470358
v -3.882873 0.784275 -0.370358
v -2.131893 -1.083635 -0.470358
v -2.131893 -1.083635 -0.370358
v -2.042819 -1.170341 -0.470358
v -2.042819 -1.170341 -0.370358
v -3.882873 -2.882447 -0.470358
v -3.882873 -2.882447 -0.370358
v -3.793798 -2.969153 -0.470358
v -3.793798 -2.969153 -0.370358
v -3.955294 -3.074230 -0.451859
v -3.955295 -3.048348 -0.355266
v -3.955295 -2.977637 -0.477741
v -3.955295 -2.951755 -0.381148
v -1.955294 -3.074228 -0.451859
v -1.955294 -3.048347 -0.355266
v -1.955294 -2.977636 -0.477741
v -1.955294 -2.951754 -0.381148
vn -1.0000 -0.0000 -0.0000
vn -0.0000 1.0000 -0.0000
vn 1.0000 -0.0000 -0.0000
vn -0.0000 -1.0000 -0.0000
vn -0.0000 -0.0000 -1.0000
vn -0.0000 -0.0000 1.0000
vn 0.6975 -0.7166 -0.0000
vn -0.7166 -0.6975 -0.0000
vn -0.6975 0.7166 -0.0000
vn 0.7166 0.6975 -0.0000
vn 0.6975 0.7166 -0.0000
vn 0.7166 -0.6975 -0.0000
vn -0.6975 -0.7166 -0.0000
vn -0.7166 0.6975 -0.0000
vn -0.0000 0.9659 -0.2588
vn -0.0000 -0.9659 0.2588
vn -0.0000 -0.2588 -0.9659
vn -0.0000 0.2588 0.9659
vt 0.375000 0.000000
vt 0.625000 0.000000
vt 0.625000 0.250000
vt 0.375000 0.250000
vt 0.625000 0.500000
vt 0.375000 0.500000
vt 0.625000 0.750000
vt 0.375000 0.750000
vt 0.625000 1.000000
vt 0.375000 1.000000
vt 0.125000 0.500000
vt 0.125000 0.750000
vt 0.875000 0.500000
vt 0.875000 0.750000
s 0
usemtl Material.018
f 201/211/109 202/212/109 204/213/109 203/214/109
f 203/214/110 204/213/110 208/215/110 207/216/110
f 207/216/111 208/215/111 206/217/111 205/218/111
f 205/218/112 206/217/112 202/219/112 201/220/112
f 203/221/113 207/216/113 205/218/113 201/222/113
f 208/215/114 204/223/114 202/224/114 206/217/114
f 209/211/112 210/212/112 212/213/112 211/214/112
f 211/214/109 212/213/109 216/215/109 215/216/109
f 215/216/110 216/215/110 214/217/110 213/218/110
f 213/218/111 214/217/111 210/219/111 209/220/111
f 211/221/113 215/216/113 213/218/113 209/222/113
f 216/215/114 212/223/114 210/224/114 214/217/114
f 217/211/112 218/212/112 220/213/112 219/214/112
f 219/214/109 220/213/109 224/215/109 223/216/109
f 223/216/110 224/215/110 222/217/110 221/218/110
f 221/218/111 222/217/111 218/219/111 217/220/111
f 219/221/113 223/216/113 221/218/113 217/222/113
f 224/215/114 220/223/114 218/224/114 222/217/114
f 225/211/115 226/212/115 228/213/115 227/214/115
f 227/214/116 228/213/116 232/215/116 231/216/116
f 231/216/117 232/215/117 230/217/117 229/218/117
f 229/218/118 230/217/118 226/219/118 225/220/118
f 227/221/113 231/216/113 229/218/113 225/222/113
f 232/215/114 228/223/114 226/224/114 230/217/114
f 233/211/119 234/212/119 236/213/119 235/214/119
f 235/214/120 236/213/120 240/215/120 239/216/120
f 239/216/121 240/215/121 238/217/121 237/218/121
f 237/218/122 238/217/122 234/219/122 233/220/122
f 235/221/113 239/216/113 237/218/113 233/222/113
f 240/215/114 236/223/114 234/224/114 238/217/114
f 241/211/109 242/212/109 244/213/109 243/214/109
f 243/214/123 244/213/123 248/215/123 247/216/123
f 247/216/111 248/215/111 246/217/111 245/218/111
f 245/218/124 246/217/124 242/219/124 241/220/124
f 243/221/125 247/216/125 245/218/125 241/222/125
f 248/215/126 244/223/126 242/224/126 246/217/126
o Cube.031
v -1.962847 0.941145 -0.455601
v -1.962847 0.941145 -0.555601
v -1.962844 -3.058855 -0.455601
v -1.962844 -3.058855 -0.555601
v -3.962847 0.941144 -0.455601
v -3.962847 0.941144 -0.555601
v -3.962844 -3.058856 -0.455601
v -3.962844 -3.058856 -0.555601
vn -0.0000 -0.0000 1.0000
vn -0.0000 -1.0000 -0.0000
vn -1.0000 -0.0000 -0.0000
vn -0.0000 -0.0000 -1.0000
vn 1.0000 -0.0000 -0.0000
vn -0.0000 1.0000 -0.0000
vt 0.625000 0.500000
vt 0.875000 0.500000
vt 0.875000 0.750000
vt 0.625000 0.750000
vt 0.375000 0.750000
vt 0.625000 1.000000
vt 0.375000 1.000000
vt 0.375000 0.000000
vt 0.625000 0.000000
vt 0.625000 0.250000
vt 0.375000 0.250000
vt 0.125000 0.500000
vt 0.375000 0.500000
vt 0.125000 0.750000
s 0
usemtl Material.006
f 249/225/127 253/226/127 255/227/127 251/228/127
f 252/229/128 251/228/128 255/230/128 256/231/128
f 256/232/129 255/233/129 253/234/129 254/235/129
f 254/236/130 250/237/130 252/229/130 256/238/130
f 250/237/131 249/225/131 251/228/131 252/229/131
f 254/235/132 253/234/132 249/225/132 250/237/132
o Cube.032
v -4.026112 0.984929 -0.550017
v -4.026112 0.984929 1.449983
v -4.026112 1.070847 -0.550017
v -4.026112 1.070847 1.449983
v -2.026112 0.984930 -0.550017
v -2.026112 0.984930 1.449983
v -2.026112 1.070847 -0.550017
v -2.026112 1.070847 1.449983
vn -1.0000 -0.0000 -0.0000
vn -0.0000 1.0000 -0.0000
vn 1.0000 -0.0000 -0.0000
vn -0.0000 -1.0000 -0.0000
vn -0.0000 -0.0000 -1.0000
vn -0.0000 -0.0000 1.0000
vt 0.375000 0.000000
vt 0.625000 0.000000
vt 0.625000 0.250000
vt 0.375000 0.250000
vt 0.625000 0.500000
vt 0.375000 0.500000
vt 0.625000 0.750000
vt 0.375000 0.750000
vt 0.625000 1.000000
vt 0.375000 1.000000
vt 0.125000 0.500000
vt 0.125000 0.750000
vt 0.875000 0.500000
vt 0.875000 0.750000
s 0
usemtl Material.021
f 257/239/133 258/240/133 260/241/133 259/242/133
f 259/242/134 260/241/134 264/243/134 263/244/134
f 263/244/135 264/243/135 262/245/135 261/246/135
f 261/246/136 262/245/136 258/247/136 257/248/136
f 259/249/137 263/244/137 261/246/137 257/250/137
f 264/243/138 260/251/138 258/252/138 262/245/138
o Cube.033
v 1.981812 -3.103409 -0.550017
v 1.981812 -3.103409 1.449983
v 1.981812 -3.017492 -0.550017
v 1.981812 -3.017492 1.449983
v 3.981812 -3.103409 -0.550017
v 3.981812 -3.103409 1.449983
v 3.981812 -3.017492 -0.550017
v 3.981812 -3.017492 1.449983
vn -1.0000 -0.0000 -0.0000
vn -0.0000 1.0000 -0.0000
vn 1.0000 -0.0000 -0.0000
vn -0.0000 -1.0000 -0.0000
vn -0.0000 -0.0000 -1.0000
vn -0.0000 -0.0000 1.0000
vt 0.375000 0.000000
vt 0.625000 0.000000
vt 0.625000 0.250000
vt 0.375000 0.250000
vt 0.625000 0.500000
vt 0.375000 0.500000
vt 0.625000 0.750000
vt 0.375000 0.750000
vt 0.625000 1.000000
vt 0.375000 1.000000
vt 0.125000 0.500000
vt 0.125000 0.750000
vt 0.875000 0.500000
vt 0.875000 0.750000
s 0
usemtl Material.022
f 265/253/139 266/254/139 268/255/139 267/256/139
f 267/256/140 268/255/140 272/257/140 271/258/140
f 271/258/141 272/257/141 270/259/141 269/260/141
f 269/260/142 270/259/142 266/261/142 265/262/142
f 267/263/143 271/258/143 269/260/143 265/264/143
f 272/257/144 268/265/144 266/266/144 270/259/144
o Cube.034
v 4.025218 0.889421 1.498965
v 4.125218 0.889421 1.498965
v 4.025219 -3.110579 1.498962
v 4.125219 -3.110579 1.498962
v 4.025218 0.889422 -0.501035
v 4.125218 0.889422 -0.501035
v 4.025219 -3.110578 -0.501038
v 4.125219 -3.110578 -0.501038
vn -1.0000 -0.0000 -0.0000
vn -0.0000 -1.0000 -0.0000
vn -0.0000 -0.0000 -1.0000
vn 1.0000 -0.0000 -0.0000
vn -0.0000 -0.0000 1.0000
vn -0.0000 1.0000 -0.0000
vt 0.625000 0.500000
vt 0.875000 0.500000
vt 0.875000 0.750000
vt 0.625000 0.750000
vt 0.375000 0.750000
vt 0.625000 1.000000
vt 0.375000 1.000000
vt 0.375000 0.000000
vt 0.625000 0.000000
vt 0.625000 0.250000
vt 0.375000 0.250000
vt 0.125000 0.500000
vt 0.375000 0.500000
vt 0.125000 0.750000
s 0
usemtl Material.007
f 273/267/145 277/268/145 279/269/145 275/270/145
f 276/271/146 275/270/146 279/272/146 280/273/146
f 280/274/147 279/275/147 277/276/147 278/277/147
f 278/278/148 274/279/148 276/271/148 280/280/148
f 274/279/149 273/267/149 275/270/149 276/271/149
f 278/277/150 277/276/150 273/267/150 274/279/150
o Cube.035
v -4.049752 0.889421 1.498965
v -3.949752 0.889421 1.498965
v -4.049751 -3.110579 1.498962
v -3.949751 -3.110579 1.498962
v -4.049752 0.889422 -0.501035
v -3.949752 0.889422 -0.501035
v -4.049751 -3.110578 -0.501038
v -3.949751 -3.110578 -0.501038
vn -1.0000 -0.0000 -0.0000
vn -0.0000 -1.0000 -0.0000
vn -0.0000 -0.0000 -1.0000
vn 1.0000 -0.0000 -0.0000
vn -0.0000 -0.0000 1.0000
vn -0.0000 1.0000 -0.0000
vt 0.625000 0.500000
vt 0.875000 0.500000
vt 0.875000 0.750000
vt 0.625000 0.750000
vt 0.375000 0.750000
vt 0.625000 1.000000
vt 0.375000 1.000000
vt 0.375000 0.000000
vt 0.625000 0.000000
vt 0.625000 0.250000
vt 0.375000 0.250000
vt 0.125000 0.500000
vt 0.375000 0.500000
vt 0.125000 0.750000
s 0
usemtl Material.009
f 281/281/151 285/282/151 287/283/151 283/284/151
f 284/285/152 283/284/152 287/286/152 288/287/152
f 288/288/153 287/289/153 285/290/153 286/291/153
f 286/292/154 282/293/154 284/285/154 288/294/154
f 282/293/155 281/281/155 283/284/155 284/285/155
f 286/291/156 285/290/156 281/281/156 282/293/156
