# Blender 5.0.0
# www.blender.org
mtllib robocup_arena_ramp_with_obstacle.mtl
o Cube
v -1.307437 -0.154449 1.086016
v -1.307437 -0.074527 1.086016
v -1.307437 -0.154449 -0.512427
v -1.307437 -0.074527 -0.512427
v 1.889449 -0.154449 1.086016
v 1.889449 -0.074527 1.086016
v 1.889449 -0.154449 -0.512427
v 1.889449 -0.074527 -0.512427
v -1.307437 -0.153967 -0.533886
v -1.307437 -0.078282 -0.508206
v -1.307437 0.359632 -2.047570
v -1.307437 0.435316 -2.021890
v 1.889449 -0.153967 -0.533886
v 1.889449 -0.078282 -0.508206
v 1.889449 0.359632 -2.047570
v 1.889449 0.435316 -2.021890
v -1.307437 0.356262 -2.028555
v -1.307437 0.431946 -2.002876
v -1.307437 0.869860 -3.542239
v -1.307437 0.945544 -3.516559
v 1.889449 0.356262 -2.028555
v 1.889449 0.431946 -2.002876
v 1.889449 0.869860 -3.542239
v 1.889449 0.945544 -3.516559
v -1.307437 0.875419 -3.521061
v -1.307437 0.955341 -3.521061
v -1.307437 0.875419 -5.119504
v -1.307437 0.955341 -5.119504
v 1.889449 0.875419 -3.521061
v 1.889449 0.955341 -3.521061
v 1.889449 0.875419 -5.119504
v 1.889449 0.955341 -5.119504
v 0.298778 0.748205 -3.571230
v 0.298778 0.748205 -3.531268
v 0.298778 1.547427 -3.571230
v 0.298778 1.547427 -3.531268
v 1.897221 0.748205 -3.571230
v 1.897221 0.748205 -3.531268
v 1.897221 1.547427 -3.571230
v 1.897221 1.547427 -3.531268
v 1.849488 -0.156523 1.105554
v 1.929411 -0.156523 1.105554
v 1.849488 1.441920 1.105554
v 1.929411 1.441920 1.105554
v 1.849488 -0.156523 -5.087819
v 1.929410 -0.156523 -5.087819
v 1.849488 1.441920 -5.087819
v 1.929410 1.441920 -5.087819
v -1.366198 -0.156523 -0.543218
v -1.286275 -0.156523 -0.543218
v -1.366198 1.441920 -0.543218
v -1.286275 1.441920 -0.543218
v -1.366198 -0.156523 -5.149759
v -1.286276 -0.156523 -5.149759
v -1.366198 1.441920 -5.149759
v -1.286276 1.441920 -5.149759
v -1.307437 -0.160270 -5.159567
v -1.307437 -0.160270 -5.079645
v -1.307437 1.438173 -5.159567
v -1.307437 1.438173 -5.079645
v 1.889449 -0.160270 -5.159567
v 1.889449 -0.160270 -5.079645
v 1.889449 1.438173 -5.159567
v 1.889449 1.438173 -5.079645
v 0.448822 -0.134980 -0.568895
v 0.448822 -0.134980 -0.488973
v 0.448822 0.822646 -0.568895
v 0.448822 0.822646 -0.488973
v 1.869313 -0.134980 -0.568895
v 1.869313 -0.134980 -0.488973
v 1.869313 0.822646 -0.568895
v 1.869313 0.822646 -0.488973
vn -1.0000 -0.0000 -0.0000
vn -0.0000 -0.0000 -1.0000
vn 1.0000 -0.0000 -0.0000
vn -0.0000 -0.0000 1.0000
vn -0.0000 -1.0000 -0.0000
vn -0.0000 1.0000 -0.0000
vn -0.0000 0.3213 -0.9470
vn -0.0000 -0.3213 0.9470
vn -0.0000 -0.9470 -0.3213
vn -0.0000 0.9470 0.3213
vt 0.375000 0.000000
vt 0.625000 0.000000
vt 0.625000 0.250000
vt 0.375000 0.250000
vt 0.625000 0.500000
vt 0.375000 0.500000
vt 0.625000 0.750000
vt 0.375000 0.750000
vt 0.625000 1.000000
vt 0.375000 1.000000
vt 0.125000 0.500000
vt 0.125000 0.750000
vt 0.875000 0.500000
vt 0.875000 0.750000
s 0
usemtl Material.001
f 1/1/1 2/2/1 4/3/1 3/4/1
f 3/4/2 4/3/2 8/5/2 7/6/2
f 7/6/3 8/5/3 6/7/3 5/8/3
f 5/8/4 6/7/4 2/9/4 1/10/4
f 3/11/5 7/6/5 5/8/5 1/12/5
f 8/5/6 4/13/6 2/14/6 6/7/6
f 9/1/1 10/2/1 12/3/1 11/4/1
f 11/4/7 12/3/7 16/5/7 15/6/7
f 15/6/3 16/5/3 14/7/3 13/8/3
f 13/8/8 14/7/8 10/9/8 9/10/8
f 11/11/9 15/6/9 13/8/9 9/12/9
f 16/5/10 12/13/10 10/14/10 14/7/10
f 17/1/1 18/2/1 20/3/1 19/4/1
f 19/4/7 20/3/7 24/5/7 23/6/7
f 23/6/3 24/5/3 22/7/3 21/8/3
f 21/8/8 22/7/8 18/9/8 17/10/8
f 19/11/9 23/6/9 21/8/9 17/12/9
f 24/5/10 20/13/10 18/14/10 22/7/10
f 25/1/1 26/2/1 28/3/1 27/4/1
f 27/4/2 28/3/2 32/5/2 31/6/2
f 31/6/3 32/5/3 30/7/3 29/8/3
f 29/8/4 30/7/4 26/9/4 25/10/4
f 27/11/5 31/6/5 29/8/5 25/12/5
f 32/5/6 28/13/6 26/14/6 30/7/6
f 33/1/1 34/2/1 36/3/1 35/4/1
f 35/4/6 36/3/6 40/5/6 39/6/6
f 39/6/3 40/5/3 38/7/3 37/8/3
f 37/8/5 38/7/5 34/9/5 33/10/5
f 35/11/2 39/6/2 37/8/2 33/12/2
f 40/5/4 36/13/4 34/14/4 38/7/4
f 41/1/4 42/2/4 44/3/4 43/4/4
f 43/4/6 44/3/6 48/5/6 47/6/6
f 47/6/2 48/5/2 46/7/2 45/8/2
f 45/8/5 46/7/5 42/9/5 41/10/5
f 43/11/1 47/6/1 45/8/1 41/12/1
f 48/5/3 44/13/3 42/14/3 46/7/3
f 49/1/4 50/2/4 52/3/4 51/4/4
f 51/4/6 52/3/6 56/5/6 55/6/6
f 55/6/2 56/5/2 54/7/2 53/8/2
f 53/8/5 54/7/5 50/9/5 49/10/5
f 51/11/1 55/6/1 53/8/1 49/12/1
f 56/5/3 52/13/3 50/14/3 54/7/3
f 57/1/1 58/2/1 60/3/1 59/4/1
f 59/4/6 60/3/6 64/5/6 63/6/6
f 63/6/3 64/5/3 62/7/3 61/8/3
f 61/8/5 62/7/5 58/9/5 57/10/5
f 59/11/2 63/6/2 61/8/2 57/12/2
f 64/5/4 60/13/4 58/14/4 62/7/4
f 65/1/1 66/2/1 68/3/1 67/4/1
f 67/4/6 68/3/6 72/5/6 71/6/6
f 71/6/3 72/5/3 70/7/3 69/8/3
f 69/8/5 70/7/5 66/9/5 65/10/5
f 67/11/2 71/6/2 69/8/2 65/12/2
f 72/5/4 68/13/4 66/14/4 70/7/4
o Cube.005
v -1.300264 0.413085 -2.172605
v -1.300264 1.511029 -2.172605
v -1.300264 0.413085 -2.049135
v -1.300264 1.511029 -2.049135
v -1.139949 0.413085 -2.172605
v -1.139949 1.511029 -2.172605
v -1.139949 0.413085 -2.049135
v -1.139949 1.511029 -2.049135
v 0.210849 0.413085 -2.172605
v 0.210849 1.511030 -2.172605
v 0.210849 0.413085 -2.049135
v 0.210849 1.511030 -2.049135
v 0.371164 0.413085 -2.172605
v 0.371164 1.511030 -2.172605
v 0.371164 0.413085 -2.049135
v 0.371164 1.511030 -2.049135
v -1.295817 1.617754 -2.172605
v 0.351272 1.617754 -2.172605
v -1.295817 1.617754 -2.049135
v 0.351272 1.617754 -2.049135
v -1.295817 1.457439 -2.172605
v 0.351272 1.457439 -2.172605
v -1.295817 1.457439 -2.049135
v 0.351272 1.457439 -2.049135
v -1.295817 1.097355 -2.172605
v 0.351272 1.097356 -2.172605
v -1.295817 1.097355 -2.049135
v 0.351272 1.097356 -2.049135
v -1.295817 0.937041 -2.172605
v 0.351272 0.937041 -2.172605
v -1.295817 0.937041 -2.049135
v 0.351272 0.937041 -2.049135
vn -1.0000 -0.0000 -0.0000
vn -0.0000 -0.0000 1.0000
vn 1.0000 -0.0000 -0.0000
vn -0.0000 -0.0000 -1.0000
vn -0.0000 -1.0000 -0.0000
vn -0.0000 1.0000 -0.0000
vt 0.375000 0.000000
vt 0.625000 0.000000
vt 0.625000 0.250000
vt 0.375000 0.250000
vt 0.625000 0.500000
vt 0.375000 0.500000
vt 0.625000 0.750000
vt 0.375000 0.750000
vt 0.625000 1.000000
vt 0.375000 1.000000
vt 0.125000 0.500000
vt 0.125000 0.750000
vt 0.875000 0.500000
vt 0.875000 0.750000
s 0
usemtl Material.002
f 73/15/11 75/18/11 76/17/11 74/16/11
f 75/18/12 79/20/12 80/19/12 76/17/12
f 79/20/13 77/22/13 78/21/13 80/19/13
f 77/22/14 73/24/14 74/23/14 78/21/14
f 75/25/15 73/26/15 77/22/15 79/20/15
f 80/19/16 78/21/16 74/28/16 76/27/16
f 81/15/11 83/18/11 84/17/11 82/16/11
f 83/18/12 87/20/12 88/19/12 84/17/12
f 87/20/13 85/22/13 86/21/13 88/19/13
f 85/22/14 81/24/14 82/23/14 86/21/14
f 83/25/15 81/26/15 85/22/15 87/20/15
f 88/19/16 86/21/16 82/28/16 84/27/16
f 89/15/16 91/18/16 92/17/16 90/16/16
f 91/18/12 95/20/12 96/19/12 92/17/12
f 95/20/15 93/22/15 94/21/15 96/19/15
f 93/22/14 89/24/14 90/23/14 94/21/14
f 91/25/11 89/26/11 93/22/11 95/20/11
f 96/19/13 94/21/13 90/28/13 92/27/13
f 97/15/16 99/18/16 100/17/16 98/16/16
f 99/18/12 103/20/12 104/19/12 100/17/12
f 103/20/15 101/22/15 102/21/15 104/19/15
f 101/22/14 97/24/14 98/23/14 102/21/14
f 99/25/11 97/26/11 101/22/11 103/20/11
f 104/19/13 102/21/13 98/28/13 100/27/13
o Europalette
v -1.458081 -0.140977 -0.383447
v -1.322450 -0.140977 -0.383447
v -1.300750 -0.140977 -0.361746
v -1.322450 -0.140977 0.918597
v -1.300749 -0.140977 0.896896
v -1.458081 -0.140977 0.918597
v -1.300749 -0.117107 0.896896
v -1.300750 -0.117107 -0.361746
v -1.322450 -0.117107 -0.383447
v -1.458081 -0.117107 -0.383447
v -1.458081 -0.117107 0.918597
v -1.322450 -0.117107 0.918597
v -1.501482 -0.140977 0.918597
v -1.609986 -0.140977 0.918597
v -1.609986 -0.140977 -0.383447
v -1.501482 -0.140977 -0.383447
v -1.501482 -0.117107 0.918597
v -1.501482 -0.117107 -0.383447
v -1.609986 -0.117107 -0.383447
v -1.609986 -0.117107 0.918597
v -1.653387 -0.140977 0.918597
v -1.810718 -0.140977 0.918597
v -1.810718 -0.140977 -0.383447
v -1.653387 -0.140977 -0.383447
v -1.653387 -0.117107 0.918597
v -1.653387 -0.117107 -0.383447
v -1.810718 -0.117107 -0.383447
v -1.810718 -0.117107 0.918597
v -1.854120 -0.140977 0.918597
v -1.962623 -0.140977 0.918597
v -1.962623 -0.140977 -0.383447
v -1.854120 -0.140977 -0.383447
v -1.854120 -0.117107 0.918597
v -1.854120 -0.117107 -0.383447
v -1.962623 -0.117107 -0.383447
v -1.962623 -0.117107 0.918597
v -2.163353 -0.140977 0.896896
v -2.163353 -0.140977 -0.361746
v -2.141652 -0.140977 -0.383447
v -2.006024 -0.140977 0.918597
v -2.006024 -0.140977 -0.383447
v -2.141652 -0.140977 0.918597
v -2.163353 -0.117107 -0.361746
v -2.163353 -0.117107 0.896896
v -2.141652 -0.117107 0.918597
v -2.006024 -0.117107 0.918597
v -2.006024 -0.117107 -0.383447
v -2.141652 -0.117107 -0.383447
v -2.163353 -0.164849 -0.226115
v -2.163353 -0.164849 -0.361746
v -2.141652 -0.164849 -0.383447
v -1.300750 -0.164849 -0.361746
v -1.322450 -0.164849 -0.383447
v -1.300750 -0.164849 -0.226115
v -2.163353 -0.140977 -0.226115
v -1.300750 -0.140977 -0.226115
v -2.054850 -0.249480 -0.226115
v -2.054850 -0.249480 -0.383447
v -2.054850 -0.164849 -0.383447
v -2.054850 -0.164849 -0.226115
v -2.141652 -0.249480 -0.383447
v -2.163353 -0.249480 -0.361746
v -2.163353 -0.249480 -0.226115
v -2.163353 -0.273353 0.896896
v -2.163353 -0.273353 -0.361746
v -2.141652 -0.273353 -0.383447
v -2.054850 -0.273353 0.918597
v -2.054850 -0.273353 -0.383447
v -2.141652 -0.273353 0.918597
v -2.163353 -0.249480 0.896896
v -2.141652 -0.249480 0.918597
v -2.054850 -0.249480 0.918597
v -1.653387 -0.249480 -0.226115
v -1.653387 -0.249480 -0.383447
v -1.653387 -0.164849 -0.383447
v -1.653387 -0.164849 -0.226115
v -1.810718 -0.249480 -0.383447
v -1.810718 -0.164849 -0.383447
v -1.810718 -0.249480 -0.226115
v -1.810718 -0.164849 -0.226115
v -1.653387 -0.273353 0.918597
v -1.810718 -0.273353 0.918597
v -1.810718 -0.273353 -0.383447
v -1.653387 -0.273353 -0.383447
v -1.653387 -0.249480 0.918597
v -1.810718 -0.249480 0.918597
v -1.409253 -0.273353 -0.383447
v -1.322450 -0.273353 -0.383447
v -1.300750 -0.273353 -0.361746
v -1.322450 -0.273353 0.918597
v -1.300750 -0.273353 0.896896
v -1.409253 -0.273353 0.918597
v -1.300750 -0.249480 0.896896
v -1.300750 -0.249480 -0.361746
v -1.322450 -0.249480 -0.383447
v -1.409253 -0.249480 -0.383447
v -1.409253 -0.249480 0.918597
v -1.322450 -0.249480 0.918597
v -1.300750 -0.249480 -0.226115
v -1.409253 -0.164849 -0.383447
v -1.409253 -0.249480 -0.226115
v -1.409253 -0.164849 -0.226115
v -1.300750 -0.164849 0.188909
v -1.300750 -0.164849 0.346241
v -2.163353 -0.164849 0.346241
v -2.163353 -0.164849 0.188909
v -1.300750 -0.140977 0.188909
v -2.163353 -0.140977 0.188909
v -2.163353 -0.140977 0.346241
v -1.300750 -0.140977 0.346241
v -1.322450 -0.164849 0.918597
v -2.141652 -0.164849 0.918597
v -2.163353 -0.164849 0.896896
v -1.300749 -0.164849 0.761268
v -2.163353 -0.164849 0.761268
v -1.300749 -0.164849 0.896896
v -1.300749 -0.140977 0.761268
v -2.163353 -0.140977 0.761268
v -1.300750 -0.249480 0.346241
v -1.300750 -0.249480 0.188909
v -1.409253 -0.249480 0.188909
v -1.409253 -0.164849 0.188909
v -1.409253 -0.249480 0.346241
v -1.409253 -0.164849 0.346241
v -1.653387 -0.249480 0.346241
v -1.653387 -0.249480 0.188909
v -1.653387 -0.164849 0.188909
v -1.653387 -0.164849 0.346241
v -1.810718 -0.249480 0.188909
v -1.810718 -0.164849 0.188909
v -1.810718 -0.249480 0.346241
v -1.810718 -0.164849 0.346241
v -2.054850 -0.249480 0.346241
v -2.054850 -0.249480 0.188909
v -2.054850 -0.164849 0.188909
v -2.054850 -0.164849 0.346241
v -2.163353 -0.249480 0.188909
v -2.163353 -0.249480 0.346241
v -2.054850 -0.249480 0.761268
v -2.054850 -0.164849 0.761268
v -2.054850 -0.164849 0.918597
v -2.163353 -0.249480 0.761268
v -1.653387 -0.249480 0.761268
v -1.653387 -0.164849 0.761268
v -1.653387 -0.164849 0.918597
v -1.810718 -0.249480 0.761268
v -1.810718 -0.164849 0.761268
v -1.810718 -0.164849 0.918597
v -1.300750 -0.249480 0.761268
v -1.409253 -0.249480 0.761268
v -1.409253 -0.164849 0.761268
v -1.409253 -0.164849 0.918597
vn -0.0000 -1.0000 -0.0000
vn -0.0000 1.0000 -0.0000
vn 1.0000 -0.0000 -0.0000
vn -0.0000 -0.0000 -1.0000
vn -1.0000 -0.0000 -0.0000
vn -0.0000 -0.0000 1.0000
vn 0.7071 -0.0000 -0.7071
vn -0.7071 -0.0000 -0.7071
vn -0.7071 -0.0000 0.7071
vn 0.7071 -0.0000 0.7071
vt 0.014100 0.567600
vt 0.014100 0.518900
vt 0.022100 0.511200
vt 0.493800 0.518900
vt 0.485800 0.511200
vt 0.493800 0.567600
vt 0.485800 0.632600
vt 0.022100 0.632600
vt 0.014100 0.624800
vt 0.014100 0.576200
vt 0.493800 0.576200
vt 0.493800 0.624800
vt 0.022100 0.502600
vt 0.485800 0.502600
vt 0.005300 0.624800
vt 0.005300 0.576200
vt 0.502600 0.576200
vt 0.502600 0.624800
vt 0.475700 0.775500
vt 0.475700 0.814000
vt 0.013800 0.814000
vt 0.013800 0.775500
vt 0.475700 0.861000
vt 0.013800 0.861000
vt 0.013800 0.822500
vt 0.475700 0.822500
vt 0.475700 0.869500
vt 0.013800 0.869500
vt 0.005300 0.861000
vt 0.005300 0.822500
vt 0.484200 0.822500
vt 0.484200 0.861000
vt 0.507400 0.151900
vt 0.507400 0.211500
vt 0.014400 0.211500
vt 0.014400 0.151900
vt 0.507400 0.280100
vt 0.014400 0.280100
vt 0.014400 0.220500
vt 0.507400 0.220500
vt 0.507400 0.289100
vt 0.014400 0.289100
vt 0.005300 0.280100
vt 0.005300 0.220500
vt 0.516500 0.220500
vt 0.516500 0.280100
vt 0.475700 0.875600
vt 0.475700 0.914100
vt 0.013800 0.914100
vt 0.013800 0.875600
vt 0.475700 0.961000
vt 0.013800 0.961000
vt 0.013800 0.922500
vt 0.475700 0.922500
vt 0.475700 0.969500
vt 0.013800 0.969500
vt 0.005300 0.961000
vt 0.005300 0.922500
vt 0.484200 0.922500
vt 0.484200 0.961000
vt 0.485800 0.770100
vt 0.022100 0.770100
vt 0.014100 0.762300
vt 0.493800 0.713700
vt 0.014100 0.713700
vt 0.493800 0.762300
vt 0.022100 0.648700
vt 0.485800 0.648700
vt 0.493800 0.656400
vt 0.493800 0.705100
vt 0.014100 0.705100
vt 0.014100 0.656400
vt 0.005300 0.762300
vt 0.005300 0.713700
vt 0.022100 0.640100
vt 0.485800 0.640100
vt 0.502600 0.713700
vt 0.502600 0.762300
vt 0.547100 0.204900
vt 0.547100 0.153100
vt 0.555400 0.144800
vt 0.876200 0.153100
vt 0.867900 0.144800
vt 0.876200 0.204900
vt 0.867900 0.274000
vt 0.555400 0.274000
vt 0.547100 0.265700
vt 0.547100 0.214000
vt 0.876200 0.214000
vt 0.876200 0.265700
vt 0.867900 0.283100
vt 0.555400 0.283100
vt 0.538000 0.265700
vt 0.538000 0.214000
vt 0.885300 0.214000
vt 0.885300 0.265700
vt 0.792900 0.904200
vt 0.706800 0.904200
vt 0.706800 0.852300
vt 0.792900 0.852300
vt 0.651700 0.904200
vt 0.651700 0.852300
vt 0.637900 0.904200
vt 0.538000 0.904200
vt 0.538000 0.852300
vt 0.637900 0.852300
vt 0.861800 0.904200
vt 0.861800 0.852300
vt 0.484200 0.495500
vt 0.022100 0.495500
vt 0.014100 0.487500
vt 0.492100 0.455700
vt 0.014100 0.455700
vt 0.492100 0.487500
vt 0.022100 0.407100
vt 0.484200 0.407100
vt 0.492100 0.415000
vt 0.492100 0.446900
vt 0.014100 0.446900
vt 0.014100 0.415000
vt 0.005300 0.446900
vt 0.005300 0.415000
vt 0.022100 0.398300
vt 0.484200 0.398300
vt 0.500900 0.415000
vt 0.500900 0.446900
vt 0.624200 0.486400
vt 0.538000 0.486400
vt 0.538000 0.440100
vt 0.624200 0.440100
vt 0.882600 0.486400
vt 0.796500 0.486400
vt 0.796500 0.440100
vt 0.882600 0.440100
vt 0.710300 0.486400
vt 0.710300 0.440100
vt 0.515900 0.003700
vt 0.515900 0.064300
vt 0.014500 0.064300
vt 0.014500 0.003700
vt 0.515900 0.134000
vt 0.014500 0.134000
vt 0.014500 0.073500
vt 0.515900 0.073500
vt 0.515900 0.143200
vt 0.014500 0.143200
vt 0.005300 0.134000
vt 0.005300 0.073500
vt 0.525100 0.073500
vt 0.525100 0.134000
vt 0.014100 0.341100
vt 0.014100 0.309200
vt 0.022100 0.301300
vt 0.492100 0.309200
vt 0.484200 0.301300
vt 0.492100 0.341100
vt 0.484200 0.389700
vt 0.022100 0.389700
vt 0.014100 0.381700
vt 0.014100 0.349900
vt 0.492100 0.349900
vt 0.492100 0.381700
vt 0.022100 0.292500
vt 0.484200 0.292500
vt 0.005300 0.381700
vt 0.005300 0.349900
vt 0.500900 0.349900
vt 0.500900 0.381700
vt 0.792900 0.742200
vt 0.706800 0.742200
vt 0.706800 0.690300
vt 0.792900 0.690300
vt 0.651700 0.742200
vt 0.651700 0.690300
vt 0.637900 0.742200
vt 0.538000 0.742200
vt 0.538000 0.690300
vt 0.637900 0.690300
vt 0.861800 0.742200
vt 0.861800 0.690300
vt 0.878600 0.298400
vt 0.878600 0.358900
vt 0.547200 0.358900
vt 0.547200 0.298400
vt 0.878600 0.428500
vt 0.547200 0.428500
vt 0.547200 0.368000
vt 0.878600 0.368000
vt 0.547200 0.289200
vt 0.878600 0.289200
vt 0.538000 0.358900
vt 0.538000 0.298400
vt 0.887800 0.298400
vt 0.887800 0.358900
vt 0.555400 0.012800
vt 0.867100 0.012800
vt 0.875300 0.021000
vt 0.547100 0.072600
vt 0.875300 0.072600
vt 0.547100 0.021000
vt 0.867100 0.141600
vt 0.555400 0.141600
vt 0.547100 0.133300
vt 0.547100 0.081700
vt 0.875300 0.081700
vt 0.875300 0.133300
vt 0.884400 0.021000
vt 0.884400 0.072600
vt 0.555400 0.003700
vt 0.867100 0.003700
vt 0.538000 0.072600
vt 0.538000 0.021000
vt 0.624200 0.632600
vt 0.538000 0.632600
vt 0.538000 0.586300
vt 0.624200 0.586300
vt 0.882600 0.632600
vt 0.796500 0.632600
vt 0.796500 0.586300
vt 0.882600 0.586300
vt 0.710300 0.632600
vt 0.710300 0.586300
vt 0.624200 0.681100
vt 0.538000 0.681100
vt 0.538000 0.634800
vt 0.624200 0.634800
vt 0.882600 0.681100
vt 0.796500 0.681100
vt 0.796500 0.634800
vt 0.882600 0.634800
vt 0.710300 0.681100
vt 0.710300 0.634800
vt 0.624200 0.535800
vt 0.538000 0.535800
vt 0.538000 0.489500
vt 0.624200 0.489500
vt 0.882600 0.535800
vt 0.796500 0.535800
vt 0.796500 0.489500
vt 0.882600 0.489500
vt 0.710300 0.535800
vt 0.710300 0.489500
vt 0.792900 0.849800
vt 0.706800 0.849800
vt 0.706800 0.798000
vt 0.792900 0.798000
vt 0.651700 0.849800
vt 0.651700 0.798000
vt 0.637900 0.849800
vt 0.538000 0.849800
vt 0.538000 0.798000
vt 0.637900 0.798000
vt 0.861800 0.849800
vt 0.861800 0.798000
vt 0.624200 0.584400
vt 0.538000 0.584400
vt 0.538000 0.538100
vt 0.624200 0.538100
vt 0.882600 0.584400
vt 0.796500 0.584400
vt 0.796500 0.538100
vt 0.882600 0.538100
vt 0.710300 0.584400
vt 0.710300 0.538100
vt 0.792900 0.795700
vt 0.706800 0.795700
vt 0.706800 0.743900
vt 0.792900 0.743900
vt 0.651700 0.795700
vt 0.651700 0.743900
vt 0.637900 0.795700
vt 0.538000 0.795700
vt 0.538000 0.743900
vt 0.637900 0.743900
vt 0.861800 0.795700
vt 0.861800 0.743900
vt 0.014100 0.632600
vt 0.005300 0.632600
vt 0.876200 0.283100
vt 0.876200 0.274000
vt 0.014100 0.389700
vt 0.005300 0.389700
vt 0.005300 0.770100
vt 0.014100 0.770100
vt 0.547100 0.274000
vt 0.547100 0.283100
vt 0.014100 0.407100
vt 0.005300 0.407100
vt 0.502600 0.770100
vt 0.493800 0.770100
vt 0.875300 0.003700
vt 0.875300 0.012800
vt 0.492100 0.407100
vt 0.500900 0.407100
vt 0.502600 0.632600
vt 0.493800 0.632600
vt 0.547100 0.003700
vt 0.547100 0.012800
vt 0.500900 0.389700
vt 0.492100 0.389700
s 1
usemtl 07___Default
f 105/29/17 106/30/17 107/31/17 108/32/17
f 107/31/17 109/33/17 108/32/17
f 105/29/17 108/32/17 110/34/17
f 111/35/18 112/36/18 113/37/18 114/38/18
f 111/35/18 114/38/18 115/39/18 116/40/18
f 109/33/19 107/31/19 112/41/19 111/42/19
f 106/43/20 105/44/20 114/38/20 113/37/20
f 105/29/21 110/34/21 115/39/21 114/38/21
f 110/45/22 108/46/22 116/40/22 115/39/22
f 117/47/17 118/48/17 119/49/17 120/50/17
f 121/51/18 122/52/18 123/53/18 124/54/18
f 117/55/19 120/56/19 122/52/19 121/51/19
f 120/57/20 119/58/20 123/53/20 122/52/20
f 119/49/21 118/48/21 124/54/21 123/53/21
f 118/59/22 117/60/22 121/51/22 124/54/22
f 125/61/17 126/62/17 127/63/17 128/64/17
f 129/65/18 130/66/18 131/67/18 132/68/18
f 125/69/19 128/70/19 130/66/19 129/65/19
f 128/71/20 127/72/20 131/67/20 130/66/20
f 127/63/21 126/62/21 132/68/21 131/67/21
f 126/73/22 125/74/22 129/65/22 132/68/22
f 133/75/17 134/76/17 135/77/17 136/78/17
f 137/79/18 138/80/18 139/81/18 140/82/18
f 133/83/19 136/84/19 138/80/19 137/79/19
f 136/85/20 135/86/20 139/81/20 138/80/20
f 135/77/21 134/76/21 140/82/21 139/81/21
f 134/87/22 133/88/22 137/79/22 140/82/22
f 141/89/17 142/90/17 143/91/17 144/92/17
f 143/91/17 145/93/17 144/92/17
f 141/89/17 144/92/17 146/94/17
f 147/95/18 148/96/18 149/97/18 150/98/18
f 147/95/18 150/98/18 151/99/18 152/100/18
f 144/92/19 145/93/19 151/99/19 150/98/19
f 145/93/20 143/91/20 152/101/20 151/102/20
f 142/103/21 141/104/21 148/96/21 147/95/21
f 146/94/22 144/92/22 150/105/22 149/106/22
f 153/107/17 154/108/17 155/109/17 156/110/17
f 155/109/17 157/111/17 156/110/17
f 153/107/17 156/110/17 158/112/17
f 106/113/18 143/114/18 142/115/18 159/116/18
f 106/113/18 159/116/18 160/117/18 107/118/18
f 157/119/20 155/120/20 143/114/20 106/113/20
f 154/121/21 153/122/21 159/116/21 142/115/21
f 153/107/22 158/112/22 160/117/22 159/116/22
f 158/123/19 156/124/19 107/118/19 160/117/19
f 161/125/19 162/126/19 163/127/19 164/128/19
f 162/126/20 165/129/20 155/130/20 163/127/20
f 166/131/21 167/132/21 153/133/21 154/134/21
f 167/135/22 161/125/22 164/128/22 153/136/22
f 168/137/17 169/138/17 170/139/17 171/140/17
f 170/139/17 172/141/17 171/140/17
f 168/137/17 171/140/17 173/142/17
f 166/143/18 174/144/18 175/145/18 176/146/18
f 166/143/18 176/146/18 162/147/18 165/148/18
f 171/140/19 172/141/19 162/147/19 176/146/19
f 172/149/20 170/150/20 165/148/20 162/147/20
f 169/151/21 168/152/21 174/144/21 166/143/21
f 173/153/22 171/154/22 176/146/22 175/145/22
f 177/155/19 178/156/19 179/157/19 180/158/19
f 178/159/20 181/160/20 182/161/20 179/162/20
f 181/160/21 183/163/21 184/164/21 182/161/21
f 183/163/22 177/155/22 180/158/22 184/164/22
f 185/165/17 186/166/17 187/167/17 188/168/17
f 189/169/18 178/170/18 181/171/18 190/172/18
f 185/173/19 188/174/19 178/170/19 189/169/19
f 188/175/20 187/176/20 181/171/20 178/170/20
f 187/167/21 186/166/21 190/172/21 181/171/21
f 186/177/22 185/178/22 189/169/22 190/172/22
f 191/179/17 192/180/17 193/181/17 194/182/17
f 193/181/17 195/183/17 194/182/17
f 191/179/17 194/182/17 196/184/17
f 197/185/18 198/186/18 199/187/18 200/188/18
f 197/185/18 200/188/18 201/189/18 202/190/18
f 195/183/19 193/181/19 198/191/19 197/192/19
f 192/193/20 191/194/20 200/188/20 199/187/20
f 191/179/21 196/184/21 201/189/21 200/188/21
f 196/195/22 194/196/22 202/190/22 201/189/22
f 203/197/19 198/198/19 156/199/19 158/200/19
f 199/198/20 200/201/20 204/202/20 157/199/20
f 200/203/21 205/204/21 206/205/21 204/206/21
f 205/207/22 203/197/22 158/200/22 206/208/22
f 207/209/17 208/210/17 209/211/17 210/212/17
f 211/213/18 212/214/18 213/215/18 214/216/18
f 207/209/20 210/212/20 212/217/20 211/218/20
f 210/212/21 209/211/21 213/219/21 212/220/21
f 209/211/22 208/210/22 214/216/22 213/215/22
f 208/210/19 207/209/19 211/221/19 214/222/19
f 215/223/17 216/224/17 217/225/17 218/226/17
f 217/225/17 219/227/17 218/226/17
f 215/223/17 218/226/17 220/228/17
f 146/229/18 108/230/18 109/231/18 221/232/18
f 146/229/18 221/232/18 222/233/18 141/234/18
f 218/226/20 219/227/20 222/233/20 221/232/20
f 219/227/21 217/225/21 141/235/21 222/236/21
f 216/224/22 215/223/22 108/237/22 146/238/22
f 220/228/19 218/226/19 221/239/19 109/240/19
f 223/241/19 224/242/19 207/243/19 208/244/19
f 224/245/20 225/246/20 226/247/20 207/248/20
f 225/246/21 227/249/21 228/250/21 226/247/21
f 227/249/22 223/241/22 208/244/22 228/250/22
f 229/251/19 230/252/19 231/253/19 232/254/19
f 230/255/20 233/256/20 234/257/20 231/258/20
f 233/256/21 235/259/21 236/260/21 234/257/21
f 235/259/22 229/251/22 232/254/22 236/260/22
f 237/261/19 238/262/19 239/263/19 240/264/19
f 238/265/20 241/266/20 210/267/20 239/268/20
f 241/266/21 242/269/21 209/270/21 210/267/21
f 242/269/22 237/261/22 240/264/22 209/270/22
f 176/271/19 243/272/19 244/273/19 245/274/19
f 243/272/20 246/275/20 219/276/20 244/273/20
f 246/277/21 174/278/21 217/279/21 219/280/21
f 175/281/22 176/271/22 245/274/22 216/282/22
f 189/283/19 247/284/19 248/285/19 249/286/19
f 247/287/20 250/288/20 251/289/20 248/290/20
f 250/288/21 190/291/21 252/292/21 251/289/21
f 190/291/22 189/283/22 249/286/22 252/292/22
f 197/293/19 253/294/19 218/295/19 220/296/19
f 253/294/20 254/297/20 255/298/20 218/295/20
f 254/299/21 201/300/21 256/301/21 255/302/21
f 201/303/22 202/293/22 215/296/22 256/304/22
s 0
f 113/37/23 112/305/23 107/306/23 106/43/23
f 156/307/23 157/119/23 106/113/23 107/308/23
f 157/206/23 156/202/23 198/201/23 199/203/23
f 199/187/23 198/309/23 193/310/23 192/193/23
f 147/311/24 152/101/24 143/91/24 142/312/24
f 154/134/24 155/130/24 165/129/24 166/131/24
f 142/313/24 143/114/24 155/120/24 154/314/24
f 166/315/24 165/148/24 170/150/24 169/316/24
f 149/106/25 148/317/25 141/318/25 146/94/25
f 146/238/25 141/319/25 217/320/25 216/224/25
f 216/280/25 217/276/25 174/275/25 175/277/25
f 175/145/25 174/321/25 168/322/25 173/153/25
f 108/46/26 109/323/26 111/324/26 116/40/26
f 109/325/26 108/237/26 215/223/26 220/326/26
f 202/302/26 197/298/26 220/297/26 215/299/26
f 194/196/26 195/327/26 197/328/26 202/190/26
