# Blender 5.0.0
# www.blender.org
mtllib robocup_arena_ramp_field.mtl
o Cube.011
v 2.040832 0.527462 -0.268118
v 2.040832 0.500066 -0.169700
v -2.045542 0.527461 -0.268118
v -2.045542 0.500065 -0.169700
v 2.040831 1.511637 0.005839
v 2.040831 1.484242 0.104256
v -2.045542 1.511636 0.005839
v -2.045542 1.484240 0.104256
v 0.039075 -2.500376 -0.303002
v 0.039075 -2.602531 -0.303992
v -2.052689 -2.500377 -0.303003
v -2.052689 -2.602531 -0.303993
v 0.039074 -2.510275 0.718543
v 0.039074 -2.612430 0.717554
v -2.052690 -2.510275 0.718542
v -2.052690 -2.612429 0.717552
v -2.045542 0.468659 -0.268118
v -2.045542 0.496054 -0.169700
v 2.040831 0.468659 -0.268118
v 2.040831 0.496055 -0.169700
v -2.045542 -0.515517 0.005839
v -2.045542 -0.488121 0.104256
v 2.040832 -0.515516 0.005839
v 2.040832 -0.488121 0.104256
v 2.040832 -1.454627 -0.268118
v 2.040832 -1.482023 -0.169700
v -2.045542 -1.454629 -0.268118
v -2.045542 -1.482024 -0.169700
v 2.040831 -0.470452 0.005839
v 2.040831 -0.497848 0.104256
v -2.045542 -0.470453 0.005839
v -2.045542 -0.497849 0.104256
v -2.045542 -1.511505 -0.268118
v -2.045542 -1.484109 -0.169700
v 2.040831 -1.511505 -0.268118
v 2.040831 -1.484109 -0.169700
v -2.045542 -2.495680 0.005839
v -2.045542 -2.468285 0.104256
v 2.040831 -2.495680 0.005839
v 2.040831 -2.468285 0.104256
v 2.040832 -3.434791 -0.268118
v 2.040832 -3.462186 -0.169700
v -2.045542 -3.434793 -0.268118
v -2.045542 -3.462187 -0.169700
v 2.040831 -2.450616 0.005839
v 2.040831 -2.478011 0.104256
v -2.045543 -2.450617 0.005839
v -2.045543 -2.478013 0.104256
v -2.045542 -3.477070 -0.268118
v -2.045542 -3.449674 -0.169700
v 2.040831 -3.477070 -0.268118
v 2.040831 -3.449674 -0.169700
v -2.045542 -4.461245 0.005839
v -2.045542 -4.433849 0.104256
v 2.040832 -4.461245 0.005838
v 2.040832 -4.433849 0.104256
v 1.936670 -4.414609 0.715471
v 2.038825 -4.416356 0.716518
v 2.036877 1.462186 0.743532
v 2.139032 1.460439 0.744579
v 1.947217 -4.409911 -0.306068
v 2.049372 -4.411658 -0.305022
v 2.047425 1.466884 -0.278007
v 2.149580 1.465137 -0.276961
v -2.182096 -4.461082 0.715471
v -2.079941 -4.462828 0.716518
v -2.081888 1.415713 0.743532
v -1.979733 1.413967 0.744579
v -2.171549 -4.456383 -0.306068
v -2.069394 -4.458130 -0.305022
v -2.071341 1.420411 -0.278008
v -1.969186 1.418664 -0.276961
v 2.040832 -4.412799 -0.303001
v 2.040832 -4.514954 -0.303991
v -2.045542 -4.412798 -0.303004
v -2.045542 -4.514953 -0.303993
v 2.040831 -4.422697 0.718544
v 2.040831 -4.524852 0.717554
v -2.045542 -4.422697 0.718542
v -2.045542 -4.524851 0.717552
v 2.057990 1.629148 -0.303002
v 2.057990 1.526994 -0.303992
v -0.033774 1.629148 -0.303003
v -0.033774 1.526994 -0.303993
v 2.057990 1.619250 0.718544
v 2.057989 1.517095 0.717554
v -0.033774 1.619250 0.718542
v -0.033774 1.517095 0.717552
v -2.045542 2.450749 -0.268118
v -2.045542 2.478144 -0.169701
v 2.040831 2.450749 -0.268118
v 2.040831 2.478144 -0.169700
v -2.045542 1.466573 0.005839
v -2.045542 1.493969 0.104256
v 2.040832 1.466573 0.005839
v 2.040831 1.493969 0.104256
vn 0.0249 0.1709 -0.9850
vn 0.0249 -0.3626 0.9316
vn -0.0249 0.1709 -0.9850
vn -0.0249 -0.3626 0.9316
vn 0.0249 0.3626 -0.9316
vn 0.0249 -0.1709 0.9850
vn -0.0249 0.3626 -0.9316
vn -0.0249 -0.1709 0.9850
vn 0.0162 0.2842 -0.9586
vn 0.1158 -0.2638 -0.9576
vn -0.0162 0.2842 -0.9586
vn -0.1158 -0.2638 -0.9576
vn 0.1158 0.2638 0.9576
vn 0.0162 -0.2842 0.9586
vn -0.1158 0.2638 0.9576
vn -0.0162 -0.2842 0.9586
vn -0.0160 0.2731 -0.9618
vn -0.2032 0.7157 0.6682
vn 0.0160 0.2731 -0.9618
vn 0.2032 0.7157 0.6682
vn -0.2032 -0.7157 -0.6682
vn -0.0160 -0.2731 0.9618
vn 0.2032 -0.7157 -0.6682
vn 0.0160 -0.2731 0.9618
vn -0.0271 -0.2877 0.9573
vn 0.0095 -0.2824 0.9592
vn -0.1579 0.4919 0.8562
vn 0.0853 0.1399 0.9865
vn -0.0853 -0.1399 -0.9865
vn 0.1579 -0.4919 -0.8562
vn -0.0096 0.2824 -0.9592
vn 0.0271 0.2877 -0.9573
vn 0.0096 -0.2824 0.9592
vn -0.0095 0.2824 -0.9592
vt 0.375000 0.000000
vt 0.625000 0.000000
vt 0.625000 0.250000
vt 0.375000 0.250000
vt 0.625000 0.500000
vt 0.375000 0.500000
vt 0.625000 0.750000
vt 0.375000 0.750000
vt 0.625000 1.000000
vt 0.375000 1.000000
vt 0.125000 0.500000
vt 0.125000 0.750000
vt 0.875000 0.500000
vt 0.875000 0.750000
s 1
usemtl Material.001
f 1/1/1 2/2/2 4/3/4 3/4/3
f 3/4/3 4/3/4 8/5/8 7/6/7
f 7/6/7 8/5/8 6/7/6 5/8/5
f 5/8/5 6/7/6 2/9/2 1/10/1
f 3/11/3 7/6/7 5/8/5 1/12/1
f 8/5/8 4/13/4 2/14/2 6/7/6
f 9/1/9 10/2/10 12/3/12 11/4/11
f 11/4/11 12/3/12 16/5/16 15/6/15
f 15/6/15 16/5/16 14/7/14 13/8/13
f 13/8/13 14/7/14 10/9/10 9/10/9
f 11/11/11 15/6/15 13/8/13 9/12/9
f 16/5/16 12/13/12 10/14/10 14/7/14
f 17/1/17 18/2/18 20/3/20 19/4/19
f 19/4/19 20/3/20 24/5/24 23/6/23
f 23/6/23 24/5/24 22/7/22 21/8/21
f 21/8/21 22/7/22 18/9/18 17/10/17
f 19/11/19 23/6/23 21/8/21 17/12/17
f 24/5/24 20/13/20 18/14/18 22/7/22
f 25/1/1 26/2/2 28/3/4 27/4/3
f 27/4/3 28/3/4 32/5/8 31/6/7
f 31/6/7 32/5/8 30/7/6 29/8/5
f 29/8/5 30/7/6 26/9/2 25/10/1
f 27/11/3 31/6/7 29/8/5 25/12/1
f 32/5/8 28/13/4 26/14/2 30/7/6
f 33/1/17 34/2/18 36/3/20 35/4/19
f 35/4/19 36/3/20 40/5/24 39/6/23
f 39/6/23 40/5/24 38/7/22 37/8/21
f 37/8/21 38/7/22 34/9/18 33/10/17
f 35/11/19 39/6/23 37/8/21 33/12/17
f 40/5/24 36/13/20 34/14/18 38/7/22
f 41/1/1 42/2/2 44/3/4 43/4/3
f 43/4/3 44/3/4 48/5/8 47/6/7
f 47/6/7 48/5/8 46/7/6 45/8/5
f 45/8/5 46/7/6 42/9/2 41/10/1
f 43/11/3 47/6/7 45/8/5 41/12/1
f 48/5/8 44/13/4 42/14/2 46/7/6
f 49/1/17 50/2/18 52/3/20 51/4/19
f 51/4/19 52/3/20 56/5/24 55/6/23
f 55/6/23 56/5/24 54/7/22 53/8/21
f 53/8/21 54/7/22 50/9/18 49/10/17
f 51/11/19 55/6/23 53/8/21 49/12/17
f 56/5/24 52/13/20 50/14/18 54/7/22
f 57/1/25 58/2/26 60/3/28 59/4/27
f 59/4/27 60/3/28 64/5/32 63/6/31
f 63/6/31 64/5/32 62/7/30 61/8/29
f 61/8/29 62/7/30 58/9/26 57/10/25
f 59/11/27 63/6/31 61/8/29 57/12/25
f 64/5/32 60/13/28 58/14/26 62/7/30
f 65/1/25 66/2/33 68/3/28 67/4/27
f 67/4/27 68/3/28 72/5/32 71/6/34
f 71/6/34 72/5/32 70/7/30 69/8/29
f 69/8/29 70/7/30 66/9/33 65/10/25
f 67/11/27 71/6/34 69/8/29 65/12/25
f 72/5/32 68/13/28 66/14/33 70/7/30
f 73/1/9 74/2/10 76/3/12 75/4/11
f 75/4/11 76/3/12 80/5/16 79/6/15
f 79/6/15 80/5/16 78/7/14 77/8/13
f 77/8/13 78/7/14 74/9/10 73/10/9
f 75/11/11 79/6/15 77/8/13 73/12/9
f 80/5/16 76/13/12 74/14/10 78/7/14
f 81/1/9 82/2/10 84/3/12 83/4/11
f 83/4/11 84/3/12 88/5/16 87/6/15
f 87/6/15 88/5/16 86/7/14 85/8/13
f 85/8/13 86/7/14 82/9/10 81/10/9
f 83/11/11 87/6/15 85/8/13 81/12/9
f 88/5/16 84/13/12 82/14/10 86/7/14
f 89/1/17 90/2/18 92/3/20 91/4/19
f 91/4/19 92/3/20 96/5/24 95/6/23
f 95/6/23 96/5/24 94/7/22 93/8/21
f 93/8/21 94/7/22 90/9/18 89/10/17
f 91/11/19 95/6/23 93/8/21 89/12/17
f 96/5/24 92/13/20 90/14/18 94/7/22
o Cube.013
v -0.322414 -0.191067 0.136357
v -0.322414 -0.191067 0.046275
v 0.317703 -0.191067 0.136357
v 0.317703 -0.191067 0.046275
v -0.322414 -0.789224 0.136357
v -0.322414 -0.789224 0.046275
v 0.317703 -0.789224 0.136357
v 0.317703 -0.789224 0.046275
vn -0.1378 0.1475 0.9794
vn -0.1378 0.1475 -0.9794
vn 0.1378 0.1475 0.9794
vn 0.1378 0.1475 -0.9794
vn -0.1378 -0.1475 0.9794
vn -0.1378 -0.1475 -0.9794
vn 0.1378 -0.1475 0.9794
vn 0.1378 -0.1475 -0.9794
vt 0.375000 0.000000
vt 0.625000 0.000000
vt 0.625000 0.250000
vt 0.375000 0.250000
vt 0.625000 0.500000
vt 0.375000 0.500000
vt 0.625000 0.750000
vt 0.375000 0.750000
vt 0.625000 1.000000
vt 0.375000 1.000000
vt 0.125000 0.500000
vt 0.125000 0.750000
vt 0.875000 0.500000
vt 0.875000 0.750000
s 1
usemtl Material.003
f 97/15/35 99/18/37 100/17/38 98/16/36
f 99/18/37 103/20/41 104/19/42 100/17/38
f 103/20/41 101/22/39 102/21/40 104/19/42
f 101/22/39 97/24/35 98/23/36 102/21/40
f 99/25/37 97/26/35 101/22/39 103/20/41
f 104/19/42 102/21/40 98/28/36 100/27/38
o Cylinder
v 0.183880 -0.487721 0.053836
v 0.183880 -0.487721 0.398628
v 0.180567 -0.521354 0.053836
v 0.180567 -0.521354 0.398628
v 0.170757 -0.553694 0.053836
v 0.170757 -0.553694 0.398628
v 0.154826 -0.583499 0.053836
v 0.154826 -0.583499 0.398628
v 0.133386 -0.609624 0.053836
v 0.133386 -0.609624 0.398628
v 0.107262 -0.631063 0.053836
v 0.107262 -0.631063 0.398628
v 0.077457 -0.646994 0.053836
v 0.077457 -0.646994 0.398628
v 0.045117 -0.656805 0.053836
v 0.045117 -0.656805 0.398628
v 0.011484 -0.660117 0.053836
v 0.011484 -0.660117 0.398628
v -0.022149 -0.656805 0.053836
v -0.022149 -0.656805 0.398628
v -0.054489 -0.646994 0.053836
v -0.054489 -0.646994 0.398628
v -0.084294 -0.631063 0.053836
v -0.084294 -0.631063 0.398628
v -0.110418 -0.609624 0.053836
v -0.110418 -0.609624 0.398628
v -0.131858 -0.583499 0.053836
v -0.131858 -0.583499 0.398628
v -0.147789 -0.553694 0.053836
v -0.147789 -0.553694 0.398628
v -0.157599 -0.521354 0.053836
v -0.157599 -0.521354 0.398628
v -0.160912 -0.487721 0.053836
v -0.160912 -0.487721 0.398628
v -0.157599 -0.454089 0.053836
v -0.157599 -0.454089 0.398628
v -0.147789 -0.421748 0.053836
v -0.147789 -0.421748 0.398628
v -0.131858 -0.391943 0.053836
v -0.131858 -0.391943 0.398628
v -0.110418 -0.365819 0.053836
v -0.110418 -0.365819 0.398628
v -0.084294 -0.344379 0.053836
v -0.084294 -0.344379 0.398628
v -0.054489 -0.328448 0.053836
v -0.054489 -0.328448 0.398628
v -0.022149 -0.318638 0.053836
v -0.022149 -0.318638 0.398628
v 0.011484 -0.315325 0.053836
v 0.011484 -0.315325 0.398628
v 0.045117 -0.318638 0.053836
v 0.045117 -0.318638 0.398628
v 0.077457 -0.328448 0.053836
v 0.077457 -0.328448 0.398628
v 0.107262 -0.344379 0.053836
v 0.107262 -0.344379 0.398628
v 0.133386 -0.365819 0.053836
v 0.133386 -0.365819 0.398628
v 0.154826 -0.391943 0.053836
v 0.154826 -0.391943 0.398628
v 0.170757 -0.421748 0.053836
v 0.170757 -0.421748 0.398628
v 0.180567 -0.454089 0.053836
v 0.180567 -0.454089 0.398628
vn 0.7279 -0.0000 -0.6857
vn 0.7279 -0.0000 0.6857
vn 0.7139 -0.1420 -0.6857
vn 0.7139 -0.1420 0.6857
vn 0.6725 -0.2785 -0.6857
vn 0.6725 -0.2785 0.6857
vn 0.6052 -0.4044 -0.6857
vn 0.6052 -0.4044 0.6857
vn 0.5147 -0.5147 -0.6857
vn 0.5147 -0.5147 0.6857
vn 0.4044 -0.6052 -0.6857
vn 0.4044 -0.6052 0.6857
vn 0.2785 -0.6725 -0.6857
vn 0.2785 -0.6725 0.6857
vn 0.1420 -0.7139 -0.6857
vn 0.1420 -0.7139 0.6857
vn -0.0000 -0.7279 -0.6857
vn -0.0000 -0.7279 0.6857
vn -0.1420 -0.7139 -0.6857
vn -0.1420 -0.7139 0.6857
vn -0.2785 -0.6725 -0.6857
vn -0.2785 -0.6725 0.6857
vn -0.4044 -0.6052 -0.6857
vn -0.4044 -0.6052 0.6857
vn -0.5147 -0.5147 -0.6857
vn -0.5147 -0.5147 0.6857
vn -0.6052 -0.4044 -0.6857
vn -0.6052 -0.4044 0.6857
vn -0.6725 -0.2785 -0.6857
vn -0.6725 -0.2785 0.6857
vn -0.7139 -0.1420 -0.6857
vn -0.7139 -0.1420 0.6857
vn -0.7279 -0.0000 -0.6857
vn -0.7279 -0.0000 0.6857
vn -0.7139 0.1420 -0.6857
vn -0.7139 0.1420 0.6857
vn -0.6725 0.2785 -0.6857
vn -0.6725 0.2785 0.6857
vn -0.6052 0.4044 -0.6857
vn -0.6052 0.4044 0.6857
vn -0.5147 0.5147 -0.6857
vn -0.5147 0.5147 0.6857
vn -0.4044 0.6052 -0.6857
vn -0.4044 0.6052 0.6857
vn -0.2785 0.6725 -0.6857
vn -0.2785 0.6725 0.6857
vn -0.1420 0.7139 -0.6857
vn -0.1420 0.7139 0.6857
vn -0.0000 0.7279 -0.6857
vn -0.0000 0.7279 0.6857
vn 0.1420 0.7139 -0.6857
vn 0.1420 0.7139 0.6857
vn 0.2785 0.6725 -0.6857
vn 0.2785 0.6725 0.6857
vn 0.4044 0.6052 -0.6857
vn 0.4044 0.6052 0.6857
vn 0.5147 0.5147 -0.6857
vn 0.5147 0.5147 0.6857
vn 0.6052 0.4044 -0.6857
vn 0.6052 0.4044 0.6857
vn 0.6725 0.2785 -0.6857
vn 0.6725 0.2785 0.6857
vn 0.7139 0.1420 -0.6857
vn 0.7139 0.1420 0.6857
vt 1.000000 0.500000
vt 1.000000 1.000000
vt 0.968750 1.000000
vt 0.968750 0.500000
vt 0.937500 1.000000
vt 0.937500 0.500000
vt 0.906250 1.000000
vt 0.906250 0.500000
vt 0.875000 1.000000
vt 0.875000 0.500000
vt 0.843750 1.000000
vt 0.843750 0.500000
vt 0.812500 1.000000
vt 0.812500 0.500000
vt 0.781250 1.000000
vt 0.781250 0.500000
vt 0.750000 1.000000
vt 0.750000 0.500000
vt 0.718750 1.000000
vt 0.718750 0.500000
vt 0.687500 1.000000
vt 0.687500 0.500000
vt 0.656250 1.000000
vt 0.656250 0.500000
vt 0.625000 1.000000
vt 0.625000 0.500000
vt 0.593750 1.000000
vt 0.593750 0.500000
vt 0.562500 1.000000
vt 0.562500 0.500000
vt 0.531250 1.000000
vt 0.531250 0.500000
vt 0.500000 1.000000
vt 0.500000 0.500000
vt 0.468750 1.000000
vt 0.468750 0.500000
vt 0.437500 1.000000
vt 0.437500 0.500000
vt 0.406250 1.000000
vt 0.406250 0.500000
vt 0.375000 1.000000
vt 0.375000 0.500000
vt 0.343750 1.000000
vt 0.343750 0.500000
vt 0.312500 1.000000
vt 0.312500 0.500000
vt 0.281250 1.000000
vt 0.281250 0.500000
vt 0.250000 1.000000
vt 0.250000 0.500000
vt 0.218750 1.000000
vt 0.218750 0.500000
vt 0.187500 1.000000
vt 0.187500 0.500000
vt 0.156250 1.000000
vt 0.156250 0.500000
vt 0.125000 1.000000
vt 0.125000 0.500000
vt 0.093750 1.000000
vt 0.093750 0.500000
vt 0.062500 1.000000
vt 0.062500 0.500000
vt 0.296822 0.485388
vt 0.250000 0.490000
vt 0.203178 0.485388
vt 0.158156 0.471731
vt 0.116663 0.449553
vt 0.080294 0.419706
vt 0.050447 0.383337
vt 0.028269 0.341844
vt 0.014612 0.296822
vt 0.010000 0.250000
vt 0.014612 0.203178
vt 0.028269 0.158156
vt 0.050447 0.116663
vt 0.080294 0.080294
vt 0.116663 0.050447
vt 0.158156 0.028269
vt 0.203178 0.014612
vt 0.250000 0.010000
vt 0.296822 0.014612
vt 0.341844 0.028269
vt 0.383337 0.050447
vt 0.419706 0.080294
vt 0.449553 0.116663
vt 0.471731 0.158156
vt 0.485388 0.203178
vt 0.490000 0.250000
vt 0.485388 0.296822
vt 0.471731 0.341844
vt 0.449553 0.383337
vt 0.419706 0.419706
vt 0.383337 0.449553
vt 0.341844 0.471731
vt 0.031250 1.000000
vt 0.031250 0.500000
vt 0.000000 1.000000
vt 0.000000 0.500000
vt 0.750000 0.490000
vt 0.796822 0.485388
vt 0.841844 0.471731
vt 0.883337 0.449553
vt 0.919706 0.419706
vt 0.949553 0.383337
vt 0.971731 0.341844
vt 0.985388 0.296822
vt 0.990000 0.250000
vt 0.985388 0.203178
vt 0.971731 0.158156
vt 0.949553 0.116663
vt 0.919706 0.080294
vt 0.883337 0.050447
vt 0.841844 0.028269
vt 0.796822 0.014612
vt 0.750000 0.010000
vt 0.703178 0.014612
vt 0.658156 0.028269
vt 0.616663 0.050447
vt 0.580294 0.080294
vt 0.550447 0.116663
vt 0.528269 0.158156
vt 0.514612 0.203178
vt 0.510000 0.250000
vt 0.514612 0.296822
vt 0.528269 0.341844
vt 0.550447 0.383337
vt 0.580294 0.419706
vt 0.616663 0.449553
vt 0.658156 0.471731
vt 0.703178 0.485388
s 1
usemtl Material.002
f 105/29/43 106/30/44 108/31/46 107/32/45
f 107/32/45 108/31/46 110/33/48 109/34/47
f 109/34/47 110/33/48 112/35/50 111/36/49
f 111/36/49 112/35/50 114/37/52 113/38/51
f 113/38/51 114/37/52 116/39/54 115/40/53
f 115/40/53 116/39/54 118/41/56 117/42/55
f 117/42/55 118/41/56 120/43/58 119/44/57
f 119/44/57 120/43/58 122/45/60 121/46/59
f 121/46/59 122/45/60 124/47/62 123/48/61
f 123/48/61 124/47/62 126/49/64 125/50/63
f 125/50/63 126/49/64 128/51/66 127/52/65
f 127/52/65 128/51/66 130/53/68 129/54/67
f 129/54/67 130/53/68 132/55/70 131/56/69
f 131/56/69 132/55/70 134/57/72 133/58/71
f 133/58/71 134/57/72 136/59/74 135/60/73
f 135/60/73 136/59/74 138/61/76 137/62/75
f 137/62/75 138/61/76 140/63/78 139/64/77
f 139/64/77 140/63/78 142/65/80 141/66/79
f 141/66/79 142/65/80 144/67/82 143/68/81
f 143/68/81 144/67/82 146/69/84 145/70/83
f 145/70/83 146/69/84 148/71/86 147/72/85
f 147/72/85 148/71/86 150/73/88 149/74/87
f 149/74/87 150/73/88 152/75/90 151/76/89
f 151/76/89 152/75/90 154/77/92 153/78/91
f 153/78/91 154/77/92 156/79/94 155/80/93
f 155/80/93 156/79/94 158/81/96 157/82/95
f 157/82/95 158/81/96 160/83/98 159/84/97
f 159/84/97 160/83/98 162/85/100 161/86/99
f 161/86/99 162/85/100 164/87/102 163/88/101
f 163/88/101 164/87/102 166/89/104 165/90/103
f 108/91/46 106/92/44 168/93/106 166/94/104 164/95/102 162/96/100 160/97/98 158/98/96 156/99/94 154/100/92 152/101/90 150/102/88 148/103/86 146/104/84 144/105/82 142/106/80 140/107/78 138/108/76 136/109/74 134/110/72 132/111/70 130/112/68 128/113/66 126/114/64 124/115/62 122/116/60 120/117/58 118/118/56 116/119/54 114/120/52 112/121/50 110/122/48
f 165/90/103 166/89/104 168/123/106 167/124/105
f 167/124/105 168/123/106 106/125/44 105/126/43
f 105/127/43 107/128/45 109/129/47 111/130/49 113/131/51 115/132/53 117/133/55 119/134/57 121/135/59 123/136/61 125/137/63 127/138/65 129/139/67 131/140/69 133/141/71 135/142/73 137/143/75 139/144/77 141/145/79 143/146/81 145/147/83 147/148/85 149/149/87 151/150/89 153/151/91 155/152/93 157/153/95 159/154/97 161/155/99 163/156/101 165/157/103 167/158/105
