# Blender 5.0.0
# www.blender.org
mtllib robocup_arena_stepfield.mtl
o Cube.017
v 2.500000 -4.500000 0.000000
v 2.500000 -4.500000 0.800000
v 2.500000 -3.500000 0.000000
v 2.500000 -3.500000 0.800000
v 3.500000 -4.500000 0.000000
v 3.500000 -4.500000 0.500000
v 3.500000 -3.500000 0.000000
v 3.500000 -3.500000 0.500000
v -0.500000 0.500000 0.000000
v -0.500000 0.500000 0.800000
v 0.500000 0.500000 0.000000
v 0.500000 0.500000 0.800000
v -0.500000 -0.500000 0.000000
v -0.500000 -0.500000 0.500000
v 0.500000 -0.500000 0.000000
v 0.500000 -0.500000 0.500000
v 0.500000 -0.500000 0.000000
v 0.500000 -0.500000 0.800000
v 0.500000 0.500000 0.000000
v 0.500000 0.500000 0.800000
v 1.500000 -0.500000 0.000000
v 1.500000 -0.500000 0.500000
v 1.500000 0.500000 0.000000
v 1.500000 0.500000 0.500000
v 1.500000 -3.547668 0.737928
v 1.500000 -3.340612 1.510669
v 0.500000 -3.547668 0.737928
v 0.500000 -3.340613 1.510669
v 1.500000 -2.581742 0.479109
v 1.500000 -2.452332 0.962072
v 0.500000 -2.581742 0.479109
v 0.500000 -2.452332 0.962072
v 1.500000 -1.615816 0.220290
v 1.500000 -1.408761 0.993031
v 0.500000 -1.615816 0.220290
v 0.500000 -1.408761 0.993031
v 1.499999 -0.649890 -0.038529
v 1.499999 -0.520481 0.444434
v 0.499999 -0.649890 -0.038529
v 0.499999 -0.520481 0.444434
v 0.499999 -0.649890 -0.038529
v 0.499999 -0.442835 0.734212
v 0.500000 -1.615816 0.220290
v 0.500000 -1.408761 0.993031
v -0.500001 -0.649891 -0.038529
v -0.500001 -0.520482 0.444434
v -0.500000 -1.615817 0.220290
v -0.500000 -1.486407 0.703253
v -0.500000 -1.615817 0.220290
v -0.500000 -1.408761 0.993031
v 0.500000 -1.615816 0.220290
v 0.500000 -1.408761 0.993031
v -0.500000 -2.581742 0.479109
v -0.500000 -2.452333 0.962072
v 0.500000 -2.581742 0.479109
v 0.500000 -2.452332 0.962072
v 0.500000 -2.581742 0.479109
v 0.500000 -2.374687 1.251850
v 0.500000 -1.615816 0.220290
v 0.500000 -1.408761 0.993031
v 1.500000 -2.581742 0.479109
v 1.500000 -2.452332 0.962072
v 1.500000 -1.615816 0.220290
v 1.500000 -1.486406 0.703253
v 0.500000 -2.581742 0.479109
v 0.500000 -2.374687 1.251850
v 0.500000 -3.547668 0.737928
v 0.500000 -3.340612 1.510669
v -0.500000 -2.581743 0.479109
v -0.500000 -2.452333 0.962072
v -0.500000 -3.547668 0.737928
v -0.500000 -3.418259 1.220891
v 2.500000 -2.500000 0.000000
v 2.500000 -2.500000 0.800000
v 2.500000 -3.500000 0.000000
v 2.500000 -3.500000 0.800000
v 1.500000 -2.500000 0.000000
v 1.500000 -2.500000 0.500000
v 1.500000 -3.500000 0.000000
v 1.500000 -3.500000 0.500000
v 3.500000 -3.500000 0.000000
v 3.500000 -3.500000 0.800000
v 2.500000 -3.500000 0.000000
v 2.500000 -3.500000 0.800000
v 3.500000 -2.500000 0.000000
v 3.500000 -2.500000 0.500000
v 2.500000 -2.500000 0.000000
v 2.500000 -2.500000 0.500000
v -0.500000 -3.500000 0.000000
v -0.500000 -3.500000 0.800000
v 0.500000 -3.500000 0.000000
v 0.500000 -3.500000 0.800000
v -0.500000 -4.500000 0.000000
v -0.500000 -4.500000 0.500000
v 0.500000 -4.500000 0.000000
v 0.500000 -4.500000 0.500000
v 0.500000 -4.500000 0.000000
v 0.500000 -4.500000 0.800000
v 0.500000 -3.500000 0.000000
v 0.500000 -3.500000 0.800000
v 1.500000 -4.500000 0.000000
v 1.500000 -4.500000 0.500000
v 1.500000 -3.500000 0.000000
v 1.500000 -3.500000 0.500000
v 1.500000 -5.500000 0.000000
v 1.500000 -5.500000 0.800000
v 0.500000 -5.500000 0.000000
v 0.500000 -5.500000 0.800000
v 1.500000 -4.500000 0.000000
v 1.500000 -4.500000 0.500000
v 0.500000 -4.500000 0.000000
v 0.500000 -4.500000 0.500000
v 0.500000 -4.500000 0.000000
v 0.500000 -4.500000 0.800000
v 0.500000 -5.500000 0.000000
v 0.500000 -5.500000 0.800000
v -0.500000 -4.500000 0.000000
v -0.500000 -4.500000 0.500000
v -0.500000 -5.500000 0.000000
v -0.500000 -5.500000 0.500000
v 2.500000 -4.500000 0.000000
v 2.500000 -4.500000 0.800000
v 2.500000 -5.500000 0.000000
v 2.500000 -5.500000 0.800000
v 1.500000 -4.500000 0.000000
v 1.500000 -4.500000 0.500000
v 1.500000 -5.500000 0.000000
v 1.500000 -5.500000 0.500000
v 3.500000 -5.500000 0.000000
v 3.500000 -5.500000 0.800000
v 2.500000 -5.500000 0.000000
v 2.500000 -5.500000 0.800000
v 3.500000 -4.500000 0.000000
v 3.500000 -4.500000 0.500000
v 2.500000 -4.500000 0.000000
v 2.500000 -4.500000 0.500000
v 1.500000 -3.500000 0.000000
v 1.500000 -3.500000 0.800000
v 2.500000 -3.500000 0.000000
v 2.500000 -3.500000 0.800000
v 1.500000 -4.500000 0.000000
v 1.500000 -4.500000 0.500000
v 2.500000 -4.500000 0.000000
v 2.500000 -4.500000 0.500000
v -0.500000 2.500000 0.000000
v -0.500000 2.500000 0.800000
v 0.500000 2.500000 0.000000
v 0.500000 2.500000 0.800000
v -0.500000 1.500000 0.000000
v -0.500000 1.500000 0.500000
v 0.500000 1.500000 0.000000
v 0.500000 1.500000 0.500000
v 0.500000 1.500000 0.000000
v 0.500000 1.500000 0.800000
v 0.500000 2.500000 0.000000
v 0.500000 2.500000 0.800000
v 1.500000 1.500000 0.000000
v 1.500000 1.500000 0.500000
v 1.500000 2.500000 0.000000
v 1.500000 2.500000 0.500000
v 1.500000 0.500000 0.000000
v 1.500000 0.500000 0.800000
v 0.500000 0.500000 0.000000
v 0.500000 0.500000 0.800000
v 1.500000 1.500000 0.000000
v 1.500000 1.500000 0.500000
v 0.500000 1.500000 0.000000
v 0.500000 1.500000 0.500000
v 0.500000 1.500000 0.000000
v 0.500000 1.500000 0.800000
v 0.500000 0.500000 0.000000
v 0.500000 0.500000 0.800000
v -0.500000 1.500000 0.000000
v -0.500000 1.500000 0.500000
v -0.500000 0.500000 0.000000
v -0.500000 0.500000 0.500000
v 2.500000 -0.418258 0.479109
v 2.500000 -0.625313 1.251850
v 1.500000 -0.418258 0.479109
v 1.500000 -0.625314 1.251850
v 2.500000 0.547668 0.737928
v 2.500000 0.418258 1.220891
v 1.500000 0.547668 0.737928
v 1.500000 0.418258 1.220891
v 2.500000 -2.350110 -0.038529
v 2.500000 -2.557165 0.734212
v 2.500000 -1.384184 0.220290
v 2.500000 -1.591239 0.993031
v 3.500001 -2.350110 -0.038529
v 3.500001 -2.479519 0.444434
v 3.500000 -1.384183 0.220290
v 3.500000 -1.513593 0.703253
v 1.500000 -1.384184 0.220290
v 1.500000 -1.591239 0.993031
v 2.500000 -1.384184 0.220290
v 2.500000 -1.591239 0.993031
v 1.500001 -2.350110 -0.038529
v 1.500001 -2.479519 0.444434
v 2.500001 -2.350110 -0.038529
v 2.500001 -2.479519 0.444434
v 1.500000 -1.384184 0.220290
v 1.500000 -1.591239 0.993031
v 1.500000 -0.418258 0.479109
v 1.500000 -0.625314 1.251850
v 2.500000 -1.384184 0.220290
v 2.500000 -1.513593 0.703253
v 2.500000 -0.418258 0.479109
v 2.500000 -0.547668 0.962072
v 3.500000 0.547668 0.737928
v 3.500000 0.340613 1.510669
v 3.500000 -0.418258 0.479109
v 3.500000 -0.625313 1.251850
v 2.500000 0.547668 0.737928
v 2.500000 0.418258 1.220891
v 2.500000 -0.418258 0.479109
v 2.500000 -0.547668 0.962072
v 2.500000 -0.418258 0.479109
v 2.500000 -0.625314 1.251850
v 3.500000 -0.418257 0.479109
v 3.500000 -0.625313 1.251850
v 2.500001 -1.384184 0.220290
v 2.500001 -1.513594 0.703253
v 3.500001 -1.384183 0.220290
v 3.500001 -1.513593 0.703253
v 2.500000 1.500000 0.000000
v 2.500000 1.500000 0.800000
v 2.500000 0.500000 0.000000
v 2.500000 0.500000 0.800000
v 1.500000 1.500000 0.000000
v 1.500000 1.500000 0.500000
v 1.500000 0.500000 0.000000
v 1.500000 0.500000 0.500000
v 3.500000 0.500000 0.000000
v 3.500000 0.500000 0.800000
v 2.500000 0.500000 0.000000
v 2.500000 0.500000 0.800000
v 3.500000 1.500000 0.000000
v 3.500000 1.500000 0.500000
v 2.500000 1.500000 0.000000
v 2.500000 1.500000 0.500000
v 2.500000 1.500000 0.000000
v 2.500000 1.500000 0.800000
v 2.500000 2.500000 0.000000
v 2.500000 2.500000 0.800000
v 3.500000 1.500000 0.000000
v 3.500000 1.500000 0.500000
v 3.500000 2.500000 0.000000
v 3.500000 2.500000 0.500000
v 1.500000 2.500000 0.000000
v 1.500000 2.500000 0.800000
v 2.500000 2.500000 0.000000
v 2.500000 2.500000 0.800000
v 1.500000 1.500000 0.000000
v 1.500000 1.500000 0.500000
v 2.500000 1.500000 0.000000
v 2.500000 1.500000 0.500000
v -0.618555 2.445430 0.068512
v -0.618555 2.445430 2.068512
v -0.514065 2.445430 0.068512
v -0.514065 2.445430 2.068512
v -0.618555 -3.399180 0.068512
v -0.618555 -3.399180 2.068512
v -0.514065 -3.399180 0.068512
v -0.514065 -3.399180 2.068512
v 3.472315 0.372419 0.068512
v 3.472315 0.372419 2.068512
v 3.576805 0.372419 0.068512
v 3.576805 0.372419 2.068512
v 3.472315 -5.472191 0.068512
v 3.472315 -5.472191 2.068512
v 3.576805 -5.472191 0.068512
v 3.576805 -5.472191 2.068512
v -0.519899 -5.530119 0.068512
v -0.519899 -5.530119 2.068512
v -0.519899 -5.425629 0.068512
v -0.519899 -5.425629 2.068512
v 3.491587 -5.530119 0.068512
v 3.491587 -5.530119 2.068512
v 3.491587 -5.425629 0.068512
v 3.491587 -5.425629 2.068512
v -0.519899 2.412753 0.068512
v -0.519899 2.412753 2.068512
v -0.519899 2.517243 0.068512
v -0.519899 2.517243 2.068512
v 3.491587 2.412753 0.068512
v 3.491587 2.412753 2.068512
v 3.491587 2.517243 0.068512
v 3.491587 2.517243 2.068512
vn -1.0000 -0.0000 -0.0000
vn -0.0000 1.0000 -0.0000
vn 1.0000 -0.0000 -0.0000
vn -0.0000 -1.0000 -0.0000
vn -0.0000 -0.0000 -1.0000
vn 0.2873 -0.0000 0.9578
vn -0.0000 -0.2873 0.9578
vn -0.0000 -0.9659 0.2588
vn -0.0000 0.9659 -0.2588
vn -0.0000 -0.2588 -0.9659
vn -0.0000 0.5255 0.8508
vn -0.2873 0.2479 0.9252
vn -0.0000 -0.0297 0.9996
vn 0.2873 0.2479 0.9252
vn -0.2873 -0.0000 0.9578
vn -0.0000 0.2873 0.9578
vn -0.0000 -0.9659 -0.2588
vn -0.0000 0.9659 0.2588
vn -0.0000 0.2588 -0.9659
vn -0.0000 0.0297 0.9996
vn 0.2873 -0.2479 0.9252
vn -0.0000 -0.5255 0.8508
vn -0.2873 -0.2479 0.9252
vn -0.0000 -0.0000 1.0000
vt 0.375000 0.000000
vt 0.625000 0.000000
vt 0.625000 0.250000
vt 0.375000 0.250000
vt 0.625000 0.500000
vt 0.375000 0.500000
vt 0.625000 0.750000
vt 0.375000 0.750000
vt 0.625000 1.000000
vt 0.375000 1.000000
vt 0.125000 0.500000
vt 0.125000 0.750000
vt 0.875000 0.500000
vt 0.875000 0.750000
s 0
usemtl Material
f 1/1/1 2/2/1 4/3/1 3/4/1
f 3/4/2 4/3/2 8/5/2 7/6/2
f 7/6/3 8/5/3 6/7/3 5/8/3
f 5/8/4 6/7/4 2/9/4 1/10/4
f 3/11/5 7/6/5 5/8/5 1/12/5
f 8/5/6 4/13/6 2/14/6 6/7/6
f 9/1/2 10/2/2 12/3/2 11/4/2
f 11/4/3 12/3/3 16/5/3 15/6/3
f 15/6/4 16/5/4 14/7/4 13/8/4
f 13/8/1 14/7/1 10/9/1 9/10/1
f 11/11/5 15/6/5 13/8/5 9/12/5
f 16/5/7 12/13/7 10/14/7 14/7/7
f 17/1/1 18/2/1 20/3/1 19/4/1
f 19/4/2 20/3/2 24/5/2 23/6/2
f 23/6/3 24/5/3 22/7/3 21/8/3
f 21/8/4 22/7/4 18/9/4 17/10/4
f 19/11/5 23/6/5 21/8/5 17/12/5
f 24/5/6 20/13/6 18/14/6 22/7/6
f 25/1/8 26/2/8 28/3/8 27/4/8
f 27/4/1 28/3/1 32/5/1 31/6/1
f 31/6/9 32/5/9 30/7/9 29/8/9
f 29/8/3 30/7/3 26/9/3 25/10/3
f 27/11/10 31/6/10 29/8/10 25/12/10
f 32/5/11 28/13/11 26/14/11 30/7/11
f 33/1/8 34/2/8 36/3/8 35/4/8
f 35/4/1 36/3/1 40/5/1 39/6/1
f 39/6/9 40/5/9 38/7/9 37/8/9
f 37/8/3 38/7/3 34/9/3 33/10/3
f 35/11/10 39/6/10 37/8/10 33/12/10
f 40/5/11 36/13/11 34/14/11 38/7/11
f 41/1/3 42/2/3 44/3/3 43/4/3
f 43/4/8 44/3/8 48/5/8 47/6/8
f 47/6/1 48/5/1 46/7/1 45/8/1
f 45/8/9 46/7/9 42/9/9 41/10/9
f 43/11/10 47/6/10 45/8/10 41/12/10
f 48/5/12 44/13/12 42/14/12 46/7/12
f 49/1/9 50/2/9 52/3/9 51/4/9
f 51/4/3 52/3/3 56/5/3 55/6/3
f 55/6/8 56/5/8 54/7/8 53/8/8
f 53/8/1 54/7/1 50/9/1 49/10/1
f 51/11/10 55/6/10 53/8/10 49/12/10
f 56/5/13 52/13/13 50/14/13 54/7/13
f 57/1/1 58/2/1 60/3/1 59/4/1
f 59/4/9 60/3/9 64/5/9 63/6/9
f 63/6/3 64/5/3 62/7/3 61/8/3
f 61/8/8 62/7/8 58/9/8 57/10/8
f 59/11/10 63/6/10 61/8/10 57/12/10
f 64/5/14 60/13/14 58/14/14 62/7/14
f 65/1/3 66/2/3 68/3/3 67/4/3
f 67/4/8 68/3/8 72/5/8 71/6/8
f 71/6/1 72/5/1 70/7/1 69/8/1
f 69/8/9 70/7/9 66/9/9 65/10/9
f 67/11/10 71/6/10 69/8/10 65/12/10
f 72/5/12 68/13/12 66/14/12 70/7/12
f 73/1/3 74/2/3 76/3/3 75/4/3
f 75/4/4 76/3/4 80/5/4 79/6/4
f 79/6/1 80/5/1 78/7/1 77/8/1
f 77/8/2 78/7/2 74/9/2 73/10/2
f 75/11/5 79/6/5 77/8/5 73/12/5
f 80/5/15 76/13/15 74/14/15 78/7/15
f 81/1/4 82/2/4 84/3/4 83/4/4
f 83/4/1 84/3/1 88/5/1 87/6/1
f 87/6/2 88/5/2 86/7/2 85/8/2
f 85/8/3 86/7/3 82/9/3 81/10/3
f 83/11/5 87/6/5 85/8/5 81/12/5
f 88/5/16 84/13/16 82/14/16 86/7/16
f 89/1/2 90/2/2 92/3/2 91/4/2
f 91/4/3 92/3/3 96/5/3 95/6/3
f 95/6/4 96/5/4 94/7/4 93/8/4
f 93/8/1 94/7/1 90/9/1 89/10/1
f 91/11/5 95/6/5 93/8/5 89/12/5
f 96/5/7 92/13/7 90/14/7 94/7/7
f 97/1/1 98/2/1 100/3/1 99/4/1
f 99/4/2 100/3/2 104/5/2 103/6/2
f 103/6/3 104/5/3 102/7/3 101/8/3
f 101/8/4 102/7/4 98/9/4 97/10/4
f 99/11/5 103/6/5 101/8/5 97/12/5
f 104/5/6 100/13/6 98/14/6 102/7/6
f 105/1/4 106/2/4 108/3/4 107/4/4
f 107/4/1 108/3/1 112/5/1 111/6/1
f 111/6/2 112/5/2 110/7/2 109/8/2
f 109/8/3 110/7/3 106/9/3 105/10/3
f 107/11/5 111/6/5 109/8/5 105/12/5
f 112/5/16 108/13/16 106/14/16 110/7/16
f 113/1/3 114/2/3 116/3/3 115/4/3
f 115/4/4 116/3/4 120/5/4 119/6/4
f 119/6/1 120/5/1 118/7/1 117/8/1
f 117/8/2 118/7/2 114/9/2 113/10/2
f 115/11/5 119/6/5 117/8/5 113/12/5
f 120/5/15 116/13/15 114/14/15 118/7/15
f 121/1/3 122/2/3 124/3/3 123/4/3
f 123/4/4 124/3/4 128/5/4 127/6/4
f 127/6/1 128/5/1 126/7/1 125/8/1
f 125/8/2 126/7/2 122/9/2 121/10/2
f 123/11/5 127/6/5 125/8/5 121/12/5
f 128/5/15 124/13/15 122/14/15 126/7/15
f 129/1/4 130/2/4 132/3/4 131/4/4
f 131/4/1 132/3/1 136/5/1 135/6/1
f 135/6/2 136/5/2 134/7/2 133/8/2
f 133/8/3 134/7/3 130/9/3 129/10/3
f 131/11/5 135/6/5 133/8/5 129/12/5
f 136/5/16 132/13/16 130/14/16 134/7/16
f 137/1/2 138/2/2 140/3/2 139/4/2
f 139/4/3 140/3/3 144/5/3 143/6/3
f 143/6/4 144/5/4 142/7/4 141/8/4
f 141/8/1 142/7/1 138/9/1 137/10/1
f 139/11/5 143/6/5 141/8/5 137/12/5
f 144/5/7 140/13/7 138/14/7 142/7/7
f 145/1/2 146/2/2 148/3/2 147/4/2
f 147/4/3 148/3/3 152/5/3 151/6/3
f 151/6/4 152/5/4 150/7/4 149/8/4
f 149/8/1 150/7/1 146/9/1 145/10/1
f 147/11/5 151/6/5 149/8/5 145/12/5
f 152/5/7 148/13/7 146/14/7 150/7/7
f 153/1/1 154/2/1 156/3/1 155/4/1
f 155/4/2 156/3/2 160/5/2 159/6/2
f 159/6/3 160/5/3 158/7/3 157/8/3
f 157/8/4 158/7/4 154/9/4 153/10/4
f 155/11/5 159/6/5 157/8/5 153/12/5
f 160/5/6 156/13/6 154/14/6 158/7/6
f 161/1/4 162/2/4 164/3/4 163/4/4
f 163/4/1 164/3/1 168/5/1 167/6/1
f 167/6/2 168/5/2 166/7/2 165/8/2
f 165/8/3 166/7/3 162/9/3 161/10/3
f 163/11/5 167/6/5 165/8/5 161/12/5
f 168/5/16 164/13/16 162/14/16 166/7/16
f 169/1/3 170/2/3 172/3/3 171/4/3
f 171/4/4 172/3/4 176/5/4 175/6/4
f 175/6/1 176/5/1 174/7/1 173/8/1
f 173/8/2 174/7/2 170/9/2 169/10/2
f 171/11/5 175/6/5 173/8/5 169/12/5
f 176/5/15 172/13/15 170/14/15 174/7/15
f 177/1/17 178/2/17 180/3/17 179/4/17
f 179/4/1 180/3/1 184/5/1 183/6/1
f 183/6/18 184/5/18 182/7/18 181/8/18
f 181/8/3 182/7/3 178/9/3 177/10/3
f 179/11/19 183/6/19 181/8/19 177/12/19
f 184/5/20 180/13/20 178/14/20 182/7/20
f 185/1/1 186/2/1 188/3/1 187/4/1
f 187/4/18 188/3/18 192/5/18 191/6/18
f 191/6/3 192/5/3 190/7/3 189/8/3
f 189/8/17 190/7/17 186/9/17 185/10/17
f 187/11/19 191/6/19 189/8/19 185/12/19
f 192/5/21 188/13/21 186/14/21 190/7/21
f 193/1/18 194/2/18 196/3/18 195/4/18
f 195/4/3 196/3/3 200/5/3 199/6/3
f 199/6/17 200/5/17 198/7/17 197/8/17
f 197/8/1 198/7/1 194/9/1 193/10/1
f 195/11/19 199/6/19 197/8/19 193/12/19
f 200/5/22 196/13/22 194/14/22 198/7/22
f 201/1/1 202/2/1 204/3/1 203/4/1
f 203/4/18 204/3/18 208/5/18 207/6/18
f 207/6/3 208/5/3 206/7/3 205/8/3
f 205/8/17 206/7/17 202/9/17 201/10/17
f 203/11/19 207/6/19 205/8/19 201/12/19
f 208/5/21 204/13/21 202/14/21 206/7/21
f 209/1/3 210/2/3 212/3/3 211/4/3
f 211/4/17 212/3/17 216/5/17 215/6/17
f 215/6/1 216/5/1 214/7/1 213/8/1
f 213/8/18 214/7/18 210/9/18 209/10/18
f 211/11/19 215/6/19 213/8/19 209/12/19
f 216/5/23 212/13/23 210/14/23 214/7/23
f 217/1/18 218/2/18 220/3/18 219/4/18
f 219/4/3 220/3/3 224/5/3 223/6/3
f 223/6/17 224/5/17 222/7/17 221/8/17
f 221/8/1 222/7/1 218/9/1 217/10/1
f 219/11/19 223/6/19 221/8/19 217/12/19
f 224/5/22 220/13/22 218/14/22 222/7/22
f 225/1/3 226/2/3 228/3/3 227/4/3
f 227/4/4 228/3/4 232/5/4 231/6/4
f 231/6/1 232/5/1 230/7/1 229/8/1
f 229/8/2 230/7/2 226/9/2 225/10/2
f 227/11/5 231/6/5 229/8/5 225/12/5
f 232/5/15 228/13/15 226/14/15 230/7/15
f 233/1/4 234/2/4 236/3/4 235/4/4
f 235/4/1 236/3/1 240/5/1 239/6/1
f 239/6/2 240/5/2 238/7/2 237/8/2
f 237/8/3 238/7/3 234/9/3 233/10/3
f 235/11/5 239/6/5 237/8/5 233/12/5
f 240/5/16 236/13/16 234/14/16 238/7/16
f 241/1/1 242/2/1 244/3/1 243/4/1
f 243/4/2 244/3/2 248/5/2 247/6/2
f 247/6/3 248/5/3 246/7/3 245/8/3
f 245/8/4 246/7/4 242/9/4 241/10/4
f 243/11/5 247/6/5 245/8/5 241/12/5
f 248/5/6 244/13/6 242/14/6 246/7/6
f 249/1/2 250/2/2 252/3/2 251/4/2
f 251/4/3 252/3/3 256/5/3 255/6/3
f 255/6/4 256/5/4 254/7/4 253/8/4
f 253/8/1 254/7/1 250/9/1 249/10/1
f 251/11/5 255/6/5 253/8/5 249/12/5
f 256/5/7 252/13/7 250/14/7 254/7/7
f 257/1/2 258/2/2 260/3/2 259/4/2
f 259/4/3 260/3/3 264/5/3 263/6/3
f 263/6/4 264/5/4 262/7/4 261/8/4
f 261/8/1 262/7/1 258/9/1 257/10/1
f 259/11/5 263/6/5 261/8/5 257/12/5
f 264/5/24 260/13/24 258/14/24 262/7/24
f 265/1/2 266/2/2 268/3/2 267/4/2
f 267/4/3 268/3/3 272/5/3 271/6/3
f 271/6/4 272/5/4 270/7/4 269/8/4
f 269/8/1 270/7/1 266/9/1 265/10/1
f 267/11/5 271/6/5 269/8/5 265/12/5
f 272/5/24 268/13/24 266/14/24 270/7/24
f 273/1/1 274/2/1 276/3/1 275/4/1
f 275/4/2 276/3/2 280/5/2 279/6/2
f 279/6/3 280/5/3 278/7/3 277/8/3
f 277/8/4 278/7/4 274/9/4 273/10/4
f 275/11/5 279/6/5 277/8/5 273/12/5
f 280/5/24 276/13/24 274/14/24 278/7/24
f 281/1/1 282/2/1 284/3/1 283/4/1
f 283/4/2 284/3/2 288/5/2 287/6/2
f 287/6/3 288/5/3 286/7/3 285/8/3
f 285/8/4 286/7/4 282/9/4 281/10/4
f 283/11/5 287/6/5 285/8/5 281/12/5
f 288/5/24 284/13/24 282/14/24 286/7/24
